<?xml version="1.0" encoding="UTF-8" standalone="no"?>
<svg
   xmlns:dc="http://purl.org/dc/elements/1.1/"
   xmlns:cc="http://creativecommons.org/ns#"
   xmlns:rdf="http://www.w3.org/1999/02/22-rdf-syntax-ns#"
   xmlns:svg="http://www.w3.org/2000/svg"
   xmlns="http://www.w3.org/2000/svg"
   xmlns:xlink="http://www.w3.org/1999/xlink"
   xmlns:sodipodi="http://sodipodi.sourceforge.net/DTD/sodipodi-0.dtd"
   xmlns:inkscape="http://www.inkscape.org/namespaces/inkscape"
   style="font-size:12px;font-style:normal;font-weight:normal;fill:#000000;fill-opacity:1;stroke:#000000;stroke-width:1;stroke-linecap:square;stroke-linejoin:miter;stroke-miterlimit:10;stroke-opacity:1;stroke-dasharray:none;stroke-dashoffset:0;font-family:Dialog"
   id="svg2"
   version="1.1"
   inkscape:version="0.48.4 r9939"
   width="600.5"
   height="350.5"
   sodipodi:docname="anti_windup_schemes.pdf">
  <metadata
     id="metadata580">
    <rdf:RDF>
      <cc:Work
         rdf:about="">
        <dc:format>image/svg+xml</dc:format>
        <dc:type
           rdf:resource="http://purl.org/dc/dcmitype/StillImage" />
        <dc:title></dc:title>
      </cc:Work>
    </rdf:RDF>
  </metadata>
  <sodipodi:namedview
     pagecolor="#ffffff"
     bordercolor="#666666"
     borderopacity="1"
     objecttolerance="10"
     gridtolerance="10"
     guidetolerance="10"
     inkscape:pageopacity="0"
     inkscape:pageshadow="2"
     inkscape:window-width="640"
     inkscape:window-height="480"
     id="namedview578"
     showgrid="false"
     fit-margin-top="0"
     fit-margin-left="0"
     fit-margin-right="0"
     fit-margin-bottom="0"
     inkscape:zoom="0.22425739"
     inkscape:cx="372.29724"
     inkscape:cy="-175.93109"
     inkscape:window-x="0"
     inkscape:window-y="29"
     inkscape:window-maximized="0"
     inkscape:current-layer="svg2" />
  <!--Generated with Batik SVG Generator-->
  <defs
     id="genericDefs">
    <linearGradient
       inkscape:collect="always"
       xlink:href="#linearGradient1"
       id="linearGradient3557"
       gradientUnits="userSpaceOnUse"
       spreadMethod="reflect"
       x1="200"
       y1="260"
       x2="200"
       y2="300" />
    <linearGradient
       inkscape:collect="always"
       xlink:href="#linearGradient1"
       id="linearGradient3559"
       gradientUnits="userSpaceOnUse"
       spreadMethod="reflect"
       x1="200"
       y1="260"
       x2="200"
       y2="300" />
    <linearGradient
       inkscape:collect="always"
       xlink:href="#linearGradient1"
       id="linearGradient3561"
       gradientUnits="userSpaceOnUse"
       spreadMethod="reflect"
       x1="200"
       y1="260"
       x2="200"
       y2="300" />
    <linearGradient
       inkscape:collect="always"
       xlink:href="#linearGradient2"
       id="linearGradient3563"
       gradientUnits="userSpaceOnUse"
       spreadMethod="reflect"
       x1="200"
       y1="190"
       x2="200"
       y2="230" />
    <linearGradient
       inkscape:collect="always"
       xlink:href="#linearGradient2"
       id="linearGradient3565"
       gradientUnits="userSpaceOnUse"
       spreadMethod="reflect"
       x1="200"
       y1="190"
       x2="200"
       y2="230" />
    <linearGradient
       inkscape:collect="always"
       xlink:href="#linearGradient2"
       id="linearGradient3567"
       gradientUnits="userSpaceOnUse"
       spreadMethod="reflect"
       x1="200"
       y1="190"
       x2="200"
       y2="230" />
    <linearGradient
       inkscape:collect="always"
       xlink:href="#linearGradient4"
       id="linearGradient3569"
       gradientUnits="userSpaceOnUse"
       spreadMethod="reflect"
       x1="310"
       y1="190"
       x2="310"
       y2="230" />
    <linearGradient
       inkscape:collect="always"
       xlink:href="#linearGradient4"
       id="linearGradient3571"
       gradientUnits="userSpaceOnUse"
       spreadMethod="reflect"
       x1="310"
       y1="190"
       x2="310"
       y2="230" />
    <linearGradient
       inkscape:collect="always"
       xlink:href="#linearGradient4"
       id="linearGradient3573"
       gradientUnits="userSpaceOnUse"
       spreadMethod="reflect"
       x1="310"
       y1="190"
       x2="310"
       y2="230" />
    <linearGradient
       inkscape:collect="always"
       xlink:href="#linearGradient5"
       id="linearGradient3575"
       gradientUnits="userSpaceOnUse"
       spreadMethod="reflect"
       x1="20"
       y1="190"
       x2="20"
       y2="230" />
    <linearGradient
       inkscape:collect="always"
       xlink:href="#linearGradient5"
       id="linearGradient3577"
       gradientUnits="userSpaceOnUse"
       spreadMethod="reflect"
       x1="20"
       y1="190"
       x2="20"
       y2="230" />
    <linearGradient
       inkscape:collect="always"
       xlink:href="#linearGradient5"
       id="linearGradient3579"
       gradientUnits="userSpaceOnUse"
       spreadMethod="reflect"
       x1="20"
       y1="190"
       x2="20"
       y2="230" />
    <linearGradient
       inkscape:collect="always"
       xlink:href="#linearGradient6"
       id="linearGradient3581"
       gradientUnits="userSpaceOnUse"
       spreadMethod="reflect"
       x1="120"
       y1="200"
       x2="120"
       y2="220" />
    <linearGradient
       inkscape:collect="always"
       xlink:href="#linearGradient6"
       id="linearGradient3583"
       gradientUnits="userSpaceOnUse"
       spreadMethod="reflect"
       x1="120"
       y1="200"
       x2="120"
       y2="220" />
    <linearGradient
       inkscape:collect="always"
       xlink:href="#linearGradient6"
       id="linearGradient3585"
       gradientUnits="userSpaceOnUse"
       spreadMethod="reflect"
       x1="120"
       y1="200"
       x2="120"
       y2="220" />
    <linearGradient
       inkscape:collect="always"
       xlink:href="#linearGradient7"
       id="linearGradient3587"
       gradientUnits="userSpaceOnUse"
       spreadMethod="reflect"
       x1="20"
       y1="110"
       x2="20"
       y2="150" />
    <linearGradient
       inkscape:collect="always"
       xlink:href="#linearGradient7"
       id="linearGradient3589"
       gradientUnits="userSpaceOnUse"
       spreadMethod="reflect"
       x1="20"
       y1="110"
       x2="20"
       y2="150" />
    <linearGradient
       inkscape:collect="always"
       xlink:href="#linearGradient7"
       id="linearGradient3591"
       gradientUnits="userSpaceOnUse"
       spreadMethod="reflect"
       x1="20"
       y1="110"
       x2="20"
       y2="150" />
    <linearGradient
       inkscape:collect="always"
       xlink:href="#linearGradient9"
       id="linearGradient3593"
       gradientUnits="userSpaceOnUse"
       spreadMethod="reflect"
       x1="430"
       y1="20"
       x2="430"
       y2="60" />
    <linearGradient
       inkscape:collect="always"
       xlink:href="#linearGradient9"
       id="linearGradient3595"
       gradientUnits="userSpaceOnUse"
       spreadMethod="reflect"
       x1="430"
       y1="20"
       x2="430"
       y2="60" />
    <linearGradient
       inkscape:collect="always"
       xlink:href="#linearGradient9"
       id="linearGradient3597"
       gradientUnits="userSpaceOnUse"
       spreadMethod="reflect"
       x1="430"
       y1="20"
       x2="430"
       y2="60" />
    <linearGradient
       inkscape:collect="always"
       xlink:href="#linearGradient10"
       id="linearGradient3599"
       gradientUnits="userSpaceOnUse"
       spreadMethod="reflect"
       x1="410"
       y1="190"
       x2="410"
       y2="230" />
    <linearGradient
       inkscape:collect="always"
       xlink:href="#linearGradient10"
       id="linearGradient3601"
       gradientUnits="userSpaceOnUse"
       spreadMethod="reflect"
       x1="410"
       y1="190"
       x2="410"
       y2="230" />
    <linearGradient
       inkscape:collect="always"
       xlink:href="#linearGradient10"
       id="linearGradient3603"
       gradientUnits="userSpaceOnUse"
       spreadMethod="reflect"
       x1="410"
       y1="190"
       x2="410"
       y2="230" />
    <linearGradient
       inkscape:collect="always"
       xlink:href="#linearGradient12"
       id="linearGradient3605"
       gradientUnits="userSpaceOnUse"
       spreadMethod="reflect"
       x1="350"
       y1="120"
       x2="350"
       y2="160" />
    <linearGradient
       inkscape:collect="always"
       xlink:href="#linearGradient12"
       id="linearGradient3607"
       gradientUnits="userSpaceOnUse"
       spreadMethod="reflect"
       x1="350"
       y1="120"
       x2="350"
       y2="160" />
    <linearGradient
       inkscape:collect="always"
       xlink:href="#linearGradient12"
       id="linearGradient3609"
       gradientUnits="userSpaceOnUse"
       spreadMethod="reflect"
       x1="350"
       y1="120"
       x2="350"
       y2="160" />
    <linearGradient
       inkscape:collect="always"
       xlink:href="#linearGradient14"
       id="linearGradient3611"
       gradientUnits="userSpaceOnUse"
       spreadMethod="reflect"
       x1="470"
       y1="260"
       x2="470"
       y2="300" />
    <linearGradient
       inkscape:collect="always"
       xlink:href="#linearGradient14"
       id="linearGradient3613"
       gradientUnits="userSpaceOnUse"
       spreadMethod="reflect"
       x1="470"
       y1="260"
       x2="470"
       y2="300" />
    <linearGradient
       inkscape:collect="always"
       xlink:href="#linearGradient14"
       id="linearGradient3615"
       gradientUnits="userSpaceOnUse"
       spreadMethod="reflect"
       x1="470"
       y1="260"
       x2="470"
       y2="300" />
    <linearGradient
       inkscape:collect="always"
       xlink:href="#linearGradient16"
       id="linearGradient3617"
       gradientUnits="userSpaceOnUse"
       spreadMethod="reflect"
       x1="530"
       y1="330"
       x2="530"
       y2="370" />
    <linearGradient
       inkscape:collect="always"
       xlink:href="#linearGradient16"
       id="linearGradient3619"
       gradientUnits="userSpaceOnUse"
       spreadMethod="reflect"
       x1="530"
       y1="330"
       x2="530"
       y2="370" />
    <linearGradient
       inkscape:collect="always"
       xlink:href="#linearGradient16"
       id="linearGradient3621"
       gradientUnits="userSpaceOnUse"
       spreadMethod="reflect"
       x1="530"
       y1="330"
       x2="530"
       y2="370" />
  </defs>
  <g
     id="g5"
     transform="translate(0.25,0.25)">
    <defs
       id="defs1">
      <linearGradient
         x1="200"
         gradientUnits="userSpaceOnUse"
         x2="200"
         y1="260"
         y2="300"
         id="linearGradient1"
         spreadMethod="reflect">
        <stop
           style="stop-opacity:1; stop-color:white;"
           offset="0%"
           id="stop9" />
        <stop
           style="stop-opacity:1; stop-color:white;"
           offset="100%"
           id="stop11" />
      </linearGradient>
      <linearGradient
         x1="200"
         gradientUnits="userSpaceOnUse"
         x2="200"
         y1="190"
         y2="230"
         id="linearGradient2"
         spreadMethod="reflect">
        <stop
           style="stop-opacity:1; stop-color:white;"
           offset="0%"
           id="stop14" />
        <stop
           style="stop-opacity:1; stop-color:white;"
           offset="100%"
           id="stop16" />
      </linearGradient>
      <linearGradient
         x1="200"
         gradientUnits="userSpaceOnUse"
         x2="200"
         y1="190"
         y2="230"
         id="linearGradient3"
         spreadMethod="reflect">
        <stop
           style="stop-opacity:1; stop-color:white;"
           offset="0%"
           id="stop19" />
        <stop
           style="stop-opacity:1; stop-color:white;"
           offset="100%"
           id="stop21" />
      </linearGradient>
      <linearGradient
         x1="310"
         gradientUnits="userSpaceOnUse"
         x2="310"
         y1="190"
         y2="230"
         id="linearGradient4"
         spreadMethod="reflect">
        <stop
           style="stop-opacity:1; stop-color:white;"
           offset="0%"
           id="stop24" />
        <stop
           style="stop-opacity:1; stop-color:white;"
           offset="100%"
           id="stop26" />
      </linearGradient>
      <linearGradient
         x1="20"
         gradientUnits="userSpaceOnUse"
         x2="20"
         y1="190"
         y2="230"
         id="linearGradient5"
         spreadMethod="reflect">
        <stop
           style="stop-opacity:1; stop-color:white;"
           offset="0%"
           id="stop29" />
        <stop
           style="stop-opacity:1; stop-color:white;"
           offset="100%"
           id="stop31" />
      </linearGradient>
      <linearGradient
         x1="120"
         gradientUnits="userSpaceOnUse"
         x2="120"
         y1="200"
         y2="220"
         id="linearGradient6"
         spreadMethod="reflect">
        <stop
           style="stop-opacity:1; stop-color:white;"
           offset="0%"
           id="stop34" />
        <stop
           style="stop-opacity:1; stop-color:white;"
           offset="100%"
           id="stop36" />
      </linearGradient>
      <linearGradient
         x1="20"
         gradientUnits="userSpaceOnUse"
         x2="20"
         y1="110"
         y2="150"
         id="linearGradient7"
         spreadMethod="reflect">
        <stop
           style="stop-opacity:1; stop-color:white;"
           offset="0%"
           id="stop39" />
        <stop
           style="stop-opacity:1; stop-color:white;"
           offset="100%"
           id="stop41" />
      </linearGradient>
      <linearGradient
         x1="20"
         gradientUnits="userSpaceOnUse"
         x2="20"
         y1="110"
         y2="150"
         id="linearGradient8"
         spreadMethod="reflect">
        <stop
           style="stop-opacity:1; stop-color:white;"
           offset="0%"
           id="stop44" />
        <stop
           style="stop-opacity:1; stop-color:white;"
           offset="100%"
           id="stop46" />
      </linearGradient>
      <linearGradient
         x1="430"
         gradientUnits="userSpaceOnUse"
         x2="430"
         y1="20"
         y2="60"
         id="linearGradient9"
         spreadMethod="reflect">
        <stop
           style="stop-opacity:1; stop-color:white;"
           offset="0%"
           id="stop49" />
        <stop
           style="stop-opacity:1; stop-color:white;"
           offset="100%"
           id="stop51" />
      </linearGradient>
      <linearGradient
         x1="410"
         gradientUnits="userSpaceOnUse"
         x2="410"
         y1="190"
         y2="230"
         id="linearGradient10"
         spreadMethod="reflect">
        <stop
           style="stop-opacity:1; stop-color:white;"
           offset="0%"
           id="stop54" />
        <stop
           style="stop-opacity:1; stop-color:white;"
           offset="100%"
           id="stop56" />
      </linearGradient>
      <linearGradient
         x1="410"
         gradientUnits="userSpaceOnUse"
         x2="410"
         y1="190"
         y2="230"
         id="linearGradient11"
         spreadMethod="reflect">
        <stop
           style="stop-opacity:1; stop-color:white;"
           offset="0%"
           id="stop59" />
        <stop
           style="stop-opacity:1; stop-color:white;"
           offset="100%"
           id="stop61" />
      </linearGradient>
      <linearGradient
         x1="350"
         gradientUnits="userSpaceOnUse"
         x2="350"
         y1="120"
         y2="160"
         id="linearGradient12"
         spreadMethod="reflect">
        <stop
           style="stop-opacity:1; stop-color:white;"
           offset="0%"
           id="stop64" />
        <stop
           style="stop-opacity:1; stop-color:white;"
           offset="100%"
           id="stop66" />
      </linearGradient>
      <linearGradient
         x1="350"
         gradientUnits="userSpaceOnUse"
         x2="350"
         y1="120"
         y2="160"
         id="linearGradient13"
         spreadMethod="reflect">
        <stop
           style="stop-opacity:1; stop-color:white;"
           offset="0%"
           id="stop69" />
        <stop
           style="stop-opacity:1; stop-color:white;"
           offset="100%"
           id="stop71" />
      </linearGradient>
      <linearGradient
         x1="470"
         gradientUnits="userSpaceOnUse"
         x2="470"
         y1="260"
         y2="300"
         id="linearGradient14"
         spreadMethod="reflect">
        <stop
           style="stop-opacity:1; stop-color:white;"
           offset="0%"
           id="stop74" />
        <stop
           style="stop-opacity:1; stop-color:white;"
           offset="100%"
           id="stop76" />
      </linearGradient>
      <linearGradient
         x1="470"
         gradientUnits="userSpaceOnUse"
         x2="470"
         y1="260"
         y2="300"
         id="linearGradient15"
         spreadMethod="reflect">
        <stop
           style="stop-opacity:1; stop-color:white;"
           offset="0%"
           id="stop79" />
        <stop
           style="stop-opacity:1; stop-color:white;"
           offset="100%"
           id="stop81" />
      </linearGradient>
      <linearGradient
         x1="530"
         gradientUnits="userSpaceOnUse"
         x2="530"
         y1="330"
         y2="370"
         id="linearGradient16"
         spreadMethod="reflect">
        <stop
           style="stop-opacity:1; stop-color:white;"
           offset="0%"
           id="stop84" />
        <stop
           style="stop-opacity:1; stop-color:white;"
           offset="100%"
           id="stop86" />
      </linearGradient>
      <linearGradient
         x1="530"
         gradientUnits="userSpaceOnUse"
         x2="530"
         y1="330"
         y2="370"
         id="linearGradient17"
         spreadMethod="reflect">
        <stop
           style="stop-opacity:1; stop-color:white;"
           offset="0%"
           id="stop89" />
        <stop
           style="stop-opacity:1; stop-color:white;"
           offset="100%"
           id="stop91" />
      </linearGradient>
      <clipPath
         clipPathUnits="userSpaceOnUse"
         id="clipPath1">
        <path
           d="M 0,0 240,0 240,385 0,385 0,0 z"
           id="path94"
           inkscape:connector-curvature="0" />
      </clipPath>
      <clipPath
         clipPathUnits="userSpaceOnUse"
         id="clipPath2">
        <path
           d="M 0,0 24,0 24,20 0,20 0,0 z"
           id="path97"
           inkscape:connector-curvature="0" />
      </clipPath>
      <clipPath
         clipPathUnits="userSpaceOnUse"
         id="clipPath3">
        <path
           d="M 0,0 40,0 40,40 0,40 0,0 z"
           id="path100"
           inkscape:connector-curvature="0" />
      </clipPath>
      <clipPath
         clipPathUnits="userSpaceOnUse"
         id="clipPath4">
        <path
           d="M 0,0 23,0 23,30 0,30 0,0 z"
           id="path103"
           inkscape:connector-curvature="0" />
      </clipPath>
      <clipPath
         clipPathUnits="userSpaceOnUse"
         id="clipPath5">
        <path
           d="M 0,0 13,0 13,20 0,20 0,0 z"
           id="path106"
           inkscape:connector-curvature="0" />
      </clipPath>
      <clipPath
         clipPathUnits="userSpaceOnUse"
         id="clipPath6">
        <path
           d="m 0.8771,32.2836 0,-30.7454 30.7455,0 0,30.7454 -30.7455,0 z"
           id="path109"
           inkscape:connector-curvature="0" />
      </clipPath>
      <clipPath
         clipPathUnits="userSpaceOnUse"
         id="clipPath7">
        <path
           d="m 3.036,28.7506 0,-23.5431 23.5432,0 0,23.5431 -23.5432,0 z"
           id="path112"
           inkscape:connector-curvature="0" />
      </clipPath>
      <clipPath
         clipPathUnits="userSpaceOnUse"
         id="clipPath8">
        <path
           d="m -1.0156,46.4717 0,-48.8118 48.8118,0 0,48.8118 -48.8118,0 z"
           id="path115"
           inkscape:connector-curvature="0" />
      </clipPath>
      <clipPath
         clipPathUnits="userSpaceOnUse"
         id="clipPath9">
        <path
           d="M 0,0 85,0 85,34 0,34 0,0 z"
           id="path118"
           inkscape:connector-curvature="0" />
      </clipPath>
    </defs>
    <g
       style="fill:url(#linearGradient3559);stroke:url(#linearGradient3561)"
       transform="translate(-20,-20)"
       id="g120">
      <rect
         x="200"
         y="260"
         width="40"
         style="fill:url(#linearGradient3557);stroke:none"
         rx="3"
         ry="3"
         height="40"
         id="rect122" />
      <rect
         x="200"
         y="260"
         width="40"
         style="fill:none;stroke:#010101;stroke-width:0.5"
         rx="3"
         ry="3"
         height="40"
         id="rect124" />
    </g>
    <g
       style="stroke-width:0.5"
       transform="matrix(0.0935,0,0,0.0935,188.7792,242)"
       id="g126">
      <path
         d="m 137,156.68 c 2,-28 9.75,-78.68 10.25,-82.43 0.5,-3.75 3.5,-19.75 13.25,-31.75 9.75,-12 25.75,-16.25 25.75,-16.25 0.25,0 -4,0.75 -4,11.5 C 182.25,48.5 195,56 203,56 c 8,0 22,-7 22,-19 0,-12 -16.5,-19 -23,-19 -6.5,0 -17,0 -26,3.5 C 167,25 146.62,38 138.12,55 129.62,72 125,92 120.5,122 116,152 111,199.37 109,227.37 c -2,28 -11.25,80.5 -11.75,84.25 -0.5,3.75 -3.5,19.75 -13.25,31.75 -9.75,12 -25.75,16.25 -25.75,16.25 -0.25,0 4,-0.75 4,-11.5 0,-10.75 -12.75,-18.25 -20.75,-18.25 -8,0 -22,7 -22,19 0,12 16.5,19 23,19 6.5,0 17,0 26,-3.5 9,-3.5 29.375,-16.5 37.88,-33.5 8.5,-17 13.12,-37 17.62,-67 2.02,-13.5 11,-85.19 13,-107.19 z"
         style="fill-rule:evenodd;stroke:none"
         id="path128"
         clip-path="url(#clipPath1)"
         inkscape:connector-curvature="0" />
    </g>
    <g
       transform="translate(-20,-20)"
       id="g130">
      <polygon
         style="stroke:none"
         points="192,276 200,280 192,284 "
         id="polygon132" />
      <polygon
         style="fill:none;stroke-width:0.5"
         points="192,276 200,280 192,284 "
         id="polygon134" />
    </g>
    <g
       transform="translate(-20,-20)"
       id="g136">
      <polygon
         style="stroke:none"
         points="240,276 248,280 240,284 "
         id="polygon138" />
      <polygon
         style="fill:none;stroke-width:0.5"
         points="240,276 248,280 240,284 "
         id="polygon140" />
    </g>
    <g
       style="fill:url(#linearGradient3565);stroke:url(#linearGradient3567)"
       transform="translate(-20,-20)"
       id="g142">
      <rect
         x="200"
         y="190"
         width="40"
         style="fill:url(#linearGradient3563);stroke:none"
         rx="3"
         ry="3"
         height="40"
         id="rect144" />
      <rect
         x="200"
         y="190"
         width="40"
         style="fill:none;stroke:#010101;stroke-width:0.5"
         rx="3"
         ry="3"
         height="40"
         id="rect146" />
      <rect
         x="200"
         y="190"
         width="40"
         style="fill:url(#linearGradient3);stroke:none"
         rx="3"
         ry="3"
         height="40"
         id="rect148" />
      <rect
         x="200"
         y="190"
         width="40"
         style="fill:none;stroke:#010101;stroke-width:0.5"
         rx="3"
         ry="3"
         height="40"
         id="rect150" />
    </g>
    <g
       style="font-size:11px;font-family:sans-serif"
       transform="translate(191,183)"
       id="g152">
      <path
         d="m 1.3594,10.0938 1.7812,0 0,-6.125 -1.9375,0.3906 0,-0.9844 1.9219,-0.3906 1.0938,0 0,7.1094 1.7656,0 0,0.9062 -4.625,0 0,-0.9062 z m 8.436,-7.1094 0.9063,0 -2.7969,9.0312 -0.9063,0 2.7969,-9.0312 z m 5.7842,2.1718 0,0.9376 Q 15.1577,5.875 14.7046,5.7734 14.2515,5.6719 13.7671,5.6719 q -0.7344,0 -1.1016,0.2265 -0.3672,0.2266 -0.3672,0.6641 0,0.3437 0.2657,0.5391 0.2656,0.1953 1.0625,0.3828 l 0.3281,0.0781 q 1.0625,0.2187 1.5,0.6328 0.4375,0.4141 0.4375,1.1485 0,0.8281 -0.6563,1.3203 -0.6562,0.4921 -1.8281,0.4921 -0.4844,0 -1.0078,-0.0937 -0.5234,-0.0937 -1.1016,-0.2813 l 0,-1.0156 q 0.5469,0.2813 1.0782,0.4219 0.5312,0.1406 1.0625,0.1406 0.6875,0 1.0625,-0.2422 0.375,-0.2421 0.375,-0.664 0,-0.4063 -0.2657,-0.625 Q 14.3452,8.5781 13.4233,8.3906 L 13.0796,8.2969 Q 12.1577,8.1094 11.7515,7.7109 11.3452,7.3125 11.3452,6.6094 q 0,-0.8438 0.6016,-1.3047 0.6015,-0.4609 1.7109,-0.4609 0.5469,0 1.0313,0.0781 Q 15.1733,5 15.5796,5.1562 z"
         style="stroke:none"
         id="path154"
         clip-path="url(#clipPath2)"
         inkscape:connector-curvature="0" />
    </g>
    <g
       transform="translate(-20,-20)"
       id="g156">
      <polygon
         style="stroke:none"
         points="192,206 200,210 192,214 "
         id="polygon158" />
      <polygon
         style="fill:none;stroke-width:0.5"
         points="192,206 200,210 192,214 "
         id="polygon160" />
    </g>
    <g
       transform="translate(-20,-20)"
       id="g162">
      <polygon
         style="stroke:none"
         points="240,206 248,210 240,214 "
         id="polygon164" />
      <polygon
         style="fill:none;stroke-width:0.5"
         points="240,206 248,210 240,214 "
         id="polygon166" />
    </g>
    <g
       style="fill:url(#linearGradient3571);stroke:url(#linearGradient3573)"
       transform="translate(-20,-20)"
       id="g168">
      <rect
         x="310"
         y="190"
         width="40"
         style="fill:url(#linearGradient3569);stroke:none"
         rx="3"
         ry="3"
         height="40"
         id="rect170" />
      <rect
         x="310"
         y="190"
         width="40"
         style="fill:none;stroke:#010101;stroke-width:0.5"
         rx="3"
         ry="3"
         height="40"
         id="rect172" />
    </g>
    <g
       transform="matrix(0.9,0,0,0.9,292,172)"
       style="stroke-width:2;stroke-linecap:round;stroke-linejoin:round;stroke-miterlimit:4"
       id="g174">
      <path
         d="m 2,30 8,0 20,-20 8,0"
         style="fill:none"
         id="path176"
         clip-path="url(#clipPath3)"
         inkscape:connector-curvature="0" />
    </g>
    <g
       transform="translate(-20,-20)"
       id="g178">
      <polygon
         style="stroke:none"
         points="302,206 310,210 302,214 "
         id="polygon180" />
      <polygon
         style="fill:none;stroke-width:0.5"
         points="302,206 310,210 302,214 "
         id="polygon182" />
    </g>
    <g
       transform="translate(-20,-20)"
       id="g184">
      <polygon
         style="stroke:none"
         points="350,206 358,210 350,214 "
         id="polygon186" />
      <polygon
         style="fill:none;stroke-width:0.5"
         points="350,206 358,210 350,214 "
         id="polygon188" />
    </g>
    <g
       style="fill:url(#linearGradient3577);stroke:url(#linearGradient3579)"
       transform="translate(-20,-20)"
       id="g190">
      <rect
         x="20"
         y="190"
         width="40"
         style="fill:url(#linearGradient3575);stroke:none"
         rx="3"
         ry="3"
         height="40"
         id="rect192" />
      <rect
         x="20"
         y="190"
         width="40"
         style="fill:none;stroke:#010101;stroke-width:0.5"
         rx="3"
         ry="3"
         height="40"
         id="rect194" />
    </g>
    <g
       transform="matrix(0.9,0,0,0.9,2,172)"
       style="stroke-width:2;stroke-linecap:butt;stroke-miterlimit:4"
       id="g196">
      <path
         d="m 0,30 20,0 0,-20 20,0"
         style="fill:none"
         id="path198"
         clip-path="url(#clipPath3)"
         inkscape:connector-curvature="0" />
    </g>
    <g
       transform="translate(-20,-20)"
       id="g200">
      <polygon
         style="stroke:none"
         points="60,206 68,210 60,214 "
         id="polygon202" />
      <polygon
         style="fill:none;stroke-width:0.5"
         points="60,206 68,210 60,214 "
         id="polygon204" />
    </g>
    <g
       style="fill:url(#linearGradient3583);stroke:url(#linearGradient3585)"
       transform="translate(-20,-20)"
       id="g206">
      <circle
         r="10"
         style="fill:url(#linearGradient3581);stroke:none"
         cx="130"
         cy="210"
         id="circle208"
         d="m 140,210 c 0,5.52285 -4.47715,10 -10,10 -5.52285,0 -10,-4.47715 -10,-10 0,-5.52285 4.47715,-10 10,-10 5.52285,0 10,4.47715 10,10 z"
         sodipodi:cx="130"
         sodipodi:cy="210"
         sodipodi:rx="10"
         sodipodi:ry="10" />
      <circle
         style="fill:none;stroke:#010101;stroke-width:0.5"
         r="10"
         cx="130"
         cy="210"
         id="circle210"
         d="m 140,210 c 0,5.52285 -4.47715,10 -10,10 -5.52285,0 -10,-4.47715 -10,-10 0,-5.52285 4.47715,-10 10,-10 5.52285,0 10,4.47715 10,10 z"
         sodipodi:cx="130"
         sodipodi:cy="210"
         sodipodi:rx="10"
         sodipodi:ry="10" />
    </g>
    <g
       style="font-size:20px;font-family:sans-serif"
       transform="translate(102,178)"
       id="g212">
      <path
         d="m 9.2031,6.4531 0,5.4531 5.4375,0 0,1.6563 -5.4375,0 0,5.4375 -1.6406,0 0,-5.4375 -5.4375,0 0,-1.6563 5.4375,0 0,-5.4531 1.6406,0 z"
         style="stroke:none"
         id="path214"
         clip-path="url(#clipPath4)"
         inkscape:connector-curvature="0" />
    </g>
    <g
       transform="matrix(0,-1,1,0,-114,334)"
       id="g216">
      <polygon
         style="stroke:none"
         points="126,220 134,224 126,228 "
         id="polygon218" />
      <polygon
         style="fill:none;stroke-width:0.5"
         points="126,220 134,224 126,228 "
         id="polygon220" />
    </g>
    <g
       transform="translate(-20,-20)"
       id="g222">
      <polygon
         style="stroke:none"
         points="112,206 120,210 112,214 "
         id="polygon224" />
      <polygon
         style="fill:none;stroke-width:0.5"
         points="112,206 120,210 112,214 "
         id="polygon226" />
    </g>
    <g
       transform="matrix(0,1,-1,0,306,46)"
       id="g228">
      <polygon
         style="stroke:none"
         points="126,192 134,196 126,200 "
         id="polygon230" />
      <polygon
         style="fill:none;stroke-width:0.5"
         points="126,192 134,196 126,200 "
         id="polygon232" />
    </g>
    <g
       transform="translate(-20,-20)"
       id="g234">
      <polygon
         style="stroke:none"
         points="140,206 148,210 140,214 "
         id="polygon236" />
      <polygon
         style="fill:none;stroke-width:0.5"
         points="140,206 148,210 140,214 "
         id="polygon238" />
    </g>
    <g
       style="fill:#ffffff;stroke:#ffffff"
       transform="translate(-20,-20)"
       id="g240">
      <rect
         x="167"
         width="7"
         height="7"
         y="207"
         style="stroke:none"
         id="rect242" />
      <rect
         x="167"
         y="207"
         width="7"
         style="fill:none;stroke:#010101;stroke-width:0.5"
         height="7"
         id="rect244" />
    </g>
    <g
       style="fill:#010101;stroke:#010101"
       transform="translate(-20,-20)"
       id="g246">
      <path
         style="fill:none"
         d="m 148.3545,210.0822 18.1456,0.3423"
         id="path248"
         inkscape:connector-curvature="0" />
    </g>
    <g
       style="fill:#010101;stroke:#010101"
       transform="translate(-20,-20)"
       id="g250">
      <path
         style="fill:none"
         d="m 174.4999,210.4216 17.0002,-0.3334"
         id="path252"
         inkscape:connector-curvature="0" />
    </g>
    <g
       style="fill:#010101;stroke:#010101"
       transform="translate(-20,-20)"
       id="g254">
      <path
         style="fill:none"
         d="M 170.4712,214.5 170,280 l 21.5,0"
         id="path256"
         inkscape:connector-curvature="0" />
    </g>
    <g
       style="fill:url(#linearGradient3589);stroke:url(#linearGradient3591)"
       transform="translate(-20,-20)"
       id="g258">
      <rect
         x="20"
         y="110"
         width="40"
         style="fill:url(#linearGradient3587);stroke:none"
         rx="3"
         ry="3"
         height="40"
         id="rect260" />
      <rect
         x="20"
         y="110"
         width="40"
         style="fill:none;stroke:#010101;stroke-width:0.5"
         rx="3"
         ry="3"
         height="40"
         id="rect262" />
      <rect
         x="20"
         y="110"
         width="40"
         style="fill:url(#linearGradient8);stroke:none"
         rx="3"
         ry="3"
         height="40"
         id="rect264" />
      <rect
         x="20"
         y="110"
         width="40"
         style="fill:none;stroke:#010101;stroke-width:0.5"
         rx="3"
         ry="3"
         height="40"
         id="rect266" />
    </g>
    <g
       style="font-size:11px;font-family:sans-serif"
       transform="translate(17,103)"
       id="g268">
      <path
         d="m 1.3594,10.0938 1.7812,0 0,-6.125 -1.9375,0.3906 0,-0.9844 1.9219,-0.3906 1.0938,0 0,7.1094 1.7656,0 0,0.9062 -4.625,0 0,-0.9062 z"
         style="stroke:none"
         id="path270"
         clip-path="url(#clipPath5)"
         inkscape:connector-curvature="0" />
    </g>
    <g
       transform="translate(-20,-20)"
       id="g272">
      <polygon
         style="stroke:none"
         points="60,126 68,130 60,134 "
         id="polygon274" />
      <polygon
         style="fill:none;stroke-width:0.5"
         points="60,126 68,130 60,134 "
         id="polygon276" />
    </g>
    <g
       style="fill:#010101;stroke:#010101"
       transform="translate(-20,-20)"
       id="g278">
      <path
         style="fill:none"
         d="m 68.5,130 61.5,0 0,63.5"
         id="path280"
         inkscape:connector-curvature="0" />
    </g>
    <g
       style="fill:url(#linearGradient3595);stroke:url(#linearGradient3597)"
       transform="translate(-20,-20)"
       id="g282">
      <rect
         x="430"
         y="20"
         width="40"
         style="fill:url(#linearGradient3593);stroke:none"
         rx="3"
         ry="3"
         height="40"
         id="rect284" />
      <rect
         x="430"
         y="20"
         width="40"
         style="fill:none;stroke:#010101;stroke-width:0.5"
         rx="3"
         ry="3"
         height="40"
         id="rect286" />
    </g>
    <g
       transform="matrix(0,1.1801356,-1.1801356,0,450.09739,0.96495408)"
       style="fill:#cc0000;stroke:#cc0000;stroke-width:0.92439997;stroke-linecap:round;stroke-linejoin:round;stroke-miterlimit:4"
       id="g288">
      <path
         d="m 31.161,16.911 c 0.0439,5.3561 -2.7884,10.3243 -7.4198,13.0151 -4.6313,2.6908 -10.3501,2.6908 -14.9814,0 C 4.1284,27.2353 1.2961,22.2671 1.34,16.911 1.2961,11.5549 4.1284,6.5867 8.7598,3.8959 c 4.6313,-2.6908 10.3501,-2.6908 14.9814,0 4.6314,2.6908 7.4637,7.659 7.4198,13.0151 z"
         style="fill:none"
         id="path290"
         clip-path="url(#clipPath6)"
         inkscape:connector-curvature="0" />
    </g>
    <g
       transform="matrix(0,1.5411,-1.5411,0,456.3079,-2.6789)"
       style="stroke-width:0.92439997;stroke-linecap:round;stroke-linejoin:round;stroke-miterlimit:4"
       id="g292">
      <path
         d="m 16.406,17.281 c 0.004,0.438 -0.2275,0.8445 -0.6062,1.0647 -0.3787,0.2202 -0.8464,0.2202 -1.2251,0 -0.3787,-0.2202 -0.6102,-0.6267 -0.6062,-1.0647 -0.004,-0.438 0.2275,-0.8445 0.6062,-1.0647 0.3787,-0.2202 0.8464,-0.2202 1.2251,0 0.3787,0.2202 0.6102,0.6267 0.6062,1.0647 z"
         style="fill-rule:evenodd;stroke:none"
         id="path294"
         clip-path="url(#clipPath7)"
         inkscape:connector-curvature="0" />
      <path
         d="m 16.406,17.281 c 0.004,0.438 -0.2275,0.8445 -0.6062,1.0647 -0.3787,0.2202 -0.8464,0.2202 -1.2251,0 -0.3787,-0.2202 -0.6102,-0.6267 -0.6062,-1.0647 -0.004,-0.438 0.2275,-0.8445 0.6062,-1.0647 0.3787,-0.2202 0.8464,-0.2202 1.2251,0 0.3787,0.2202 0.6102,0.6267 0.6062,1.0647 z"
         style="fill:none;stroke-width:0.70789999"
         id="path296"
         clip-path="url(#clipPath7)"
         inkscape:connector-curvature="0" />
    </g>
    <g
       transform="matrix(0,0.7433,-0.7433,0,446.5431,2.7549)"
       style="stroke-width:2.93530011;stroke-linecap:round;stroke-miterlimit:4"
       id="g298">
      <path
         d="M 22.177,20.718 13.156,13.14"
         style="fill:none"
         id="path300"
         clip-path="url(#clipPath8)"
         inkscape:connector-curvature="0" />
    </g>
    <g
       transform="matrix(0,0.7433,-0.7433,0,446.5431,2.7549)"
       style="stroke-width:2.93530011;stroke-linecap:round;stroke-miterlimit:4"
       id="g302">
      <path
         d="m 19.409,29.777 2.96,-4.4933"
         style="fill:none"
         id="path304"
         clip-path="url(#clipPath8)"
         inkscape:connector-curvature="0" />
    </g>
    <g
       style="fill:#ff0000;stroke:#ff0000"
       transform="matrix(0,1,-1,0,494,-406)"
       id="g306">
      <polygon
         style="stroke:none"
         points="446,60 454,64 446,68 "
         id="polygon308" />
      <polygon
         style="fill:none;stroke-width:0.5"
         points="446,60 454,64 446,68 "
         id="polygon310" />
    </g>
    <g
       style="fill:url(#linearGradient3601);stroke:url(#linearGradient3603)"
       transform="translate(-20,-20)"
       id="g312">
      <rect
         x="410"
         y="190"
         width="90"
         style="fill:url(#linearGradient3599);stroke:none"
         rx="7"
         ry="7"
         height="40"
         id="rect314" />
      <rect
         x="410"
         y="190"
         width="90"
         style="fill:none;stroke:#010101;stroke-width:0.5"
         rx="7"
         ry="7"
         height="40"
         id="rect316" />
      <rect
         x="410"
         y="190"
         width="90"
         style="fill:url(#linearGradient11);stroke:none"
         rx="7"
         ry="7"
         height="40"
         id="rect318" />
      <rect
         x="410"
         y="190"
         width="90"
         style="fill:none;stroke:#010101;stroke-width:0.5"
         rx="7"
         ry="7"
         height="40"
         id="rect320" />
    </g>
    <g
       style="font-size:11px;font-family:sans-serif"
       transform="translate(396,176)"
       id="g322">
      <path
         d="m -0.0312,2.9844 6.7812,0 0,0.9062 -2.8438,0 0,7.1094 -1.0937,0 0,-7.1094 -2.8437,0 0,-0.9062 z m 10.1254,2.6875 q -0.7968,0 -1.2578,0.625 Q 8.3755,6.9219 8.3755,8 q 0,1.0781 0.4531,1.6953 0.4531,0.6172 1.2656,0.6172 0.7813,0 1.2422,-0.6172 0.461,-0.6172 0.461,-1.6953 0,-1.0781 -0.461,-1.7031 -0.4609,-0.625 -1.2422,-0.625 z m 0,-0.8281 q 1.2813,0 2.0157,0.8359 0.7343,0.8359 0.7343,2.3203 0,1.4688 -0.7343,2.3125 -0.7344,0.8437 -2.0157,0.8437 -1.2968,0 -2.0312,-0.8437 Q 7.3286,9.4688 7.3286,8 7.3286,6.5156 8.063,5.6797 8.7974,4.8438 10.0942,4.8438 z m 7.3204,0.1406 0.9843,0 1.2344,4.6875 1.2344,-4.6875 1.1562,0 1.2344,4.6875 1.2344,-4.6875 0.9844,0 L 23.9146,11 22.7427,11 21.4458,6.0625 20.1489,11 18.9771,11 17.4146,4.9844 z m 11.9028,0.6875 q -0.7969,0 -1.2578,0.625 -0.461,0.625 -0.461,1.7031 0,1.0781 0.4532,1.6953 0.4531,0.6172 1.2656,0.6172 0.7812,0 1.2422,-0.6172 Q 31.0205,9.0781 31.0205,8 q 0,-1.0781 -0.4609,-1.7031 -0.461,-0.625 -1.2422,-0.625 z m 0,-0.8281 q 1.2812,0 2.0156,0.8359 0.7344,0.8359 0.7344,2.3203 0,1.4688 -0.7344,2.3125 -0.7344,0.8437 -2.0156,0.8437 -1.2969,0 -2.0313,-0.8437 Q 26.5518,9.4688 26.5518,8 q 0,-1.4844 0.7343,-2.3203 0.7344,-0.8359 2.0313,-0.8359 z M 37.188,5.9062 Q 37.0317,5.8125 36.8364,5.7656 36.6411,5.7188 36.4067,5.7188 q -0.8437,0 -1.289,0.5468 -0.4453,0.5469 -0.4453,1.5625 l 0,3.1719 -1,0 0,-6.0156 1,0 0,0.9375 q 0.2968,-0.5469 0.7968,-0.8125 0.5,-0.2656 1.2188,-0.2656 0.1094,0 0.2266,0.0078 0.1171,0.0078 0.2734,0.039 l 0,1.0156 z m 1.0068,-3.2656 1,0 0,4.9375 2.9375,-2.5937 1.2656,0 -3.1875,2.8125 3.3282,3.2031 -1.2969,0 -3.0469,-2.9375 0,2.9375 -1,0 0,-8.3594 z m 10.2451,2.5156 0,0.9376 Q 48.0181,5.875 47.5649,5.7734 47.1118,5.6719 46.6274,5.6719 q -0.7343,0 -1.1015,0.2265 -0.3672,0.2266 -0.3672,0.6641 0,0.3437 0.2656,0.5391 0.2656,0.1953 1.0625,0.3828 l 0.3281,0.0781 q 1.0625,0.2187 1.5,0.6328 0.4375,0.4141 0.4375,1.1485 0,0.8281 -0.6562,1.3203 -0.6563,0.4921 -1.8281,0.4921 -0.4844,0 -1.0078,-0.0937 -0.5235,-0.0937 -1.1016,-0.2813 l 0,-1.0156 q 0.5469,0.2813 1.0781,0.4219 0.5313,0.1406 1.0625,0.1406 0.6875,0 1.0625,-0.2422 0.375,-0.2421 0.375,-0.664 0,-0.4063 -0.2656,-0.625 Q 47.2056,8.5781 46.2837,8.3906 L 45.9399,8.2969 Q 45.0181,8.1094 44.6118,7.7109 44.2056,7.3125 44.2056,6.6094 q 0,-0.8438 0.6015,-1.3047 0.6016,-0.4609 1.711,-0.4609 0.5468,0 1.0312,0.0781 Q 48.0337,5 48.4399,5.1562 z m 2.856,4.9376 0,3.1874 -1,0 0,-8.2968 1,0 0,0.9062 q 0.2969,-0.5312 0.7734,-0.789 0.4766,-0.2578 1.1485,-0.2578 1.0937,0 1.7734,0.8671 0.6797,0.8672 0.6797,2.2891 0,1.4219 -0.6797,2.2891 -0.6797,0.8671 -1.7734,0.8671 -0.6719,0 -1.1485,-0.2578 -0.4765,-0.2578 -0.7734,-0.8046 z M 54.6553,8 q 0,-1.0938 -0.4532,-1.7109 -0.4531,-0.6172 -1.2343,-0.6172 -0.7813,0 -1.2266,0.6172 Q 51.2959,6.9062 51.2959,8 q 0,1.0938 0.4453,1.7109 0.4453,0.6172 1.2266,0.6172 0.7812,0 1.2343,-0.6172 Q 54.6553,9.0938 54.6553,8 z m 5.3886,-0.0312 q -1.1875,0 -1.6484,0.2812 -0.4609,0.2812 -0.4609,0.9375 0,0.5156 0.3437,0.8281 0.3438,0.3125 0.9375,0.3125 0.8281,0 1.3203,-0.5859 0.4922,-0.586 0.4922,-1.5391 l 0,-0.2343 -0.9844,0 z m 1.9688,-0.4063 0,3.4375 -0.9844,0 0,-0.9062 q -0.3281,0.5468 -0.8359,0.8046 -0.5078,0.2578 -1.2422,0.2578 -0.9219,0 -1.4688,-0.5156 -0.5468,-0.5156 -0.5468,-1.3906 0,-1.0156 0.6797,-1.5312 0.6796,-0.5157 2.039,-0.5157 l 1.375,0 0,-0.0937 q 0,-0.6875 -0.4453,-1.0625 -0.4453,-0.375 -1.2578,-0.375 -0.5156,0 -1.0078,0.125 -0.4922,0.125 -0.9453,0.375 l 0,-0.9063 q 0.5468,-0.2187 1.0625,-0.3203 0.5156,-0.1015 0.9843,-0.1015 1.3125,0 1.9532,0.6718 0.6406,0.6719 0.6406,2.0469 z m 6.3657,-2.3437 0,0.9218 Q 67.9722,5.9062 67.5503,5.7891 67.1284,5.6719 66.6909,5.6719 q -0.9531,0 -1.4844,0.6093 Q 64.6753,6.8906 64.6753,8 q 0,1.0938 0.5312,1.7031 0.5313,0.6094 1.4844,0.6094 0.4375,0 0.8594,-0.1094 0.4219,-0.1093 0.8281,-0.3437 l 0,0.9062 q -0.4062,0.2032 -0.8515,0.2969 -0.4454,0.0937 -0.9454,0.0937 -1.3593,0 -2.1562,-0.8515 Q 63.6284,9.4531 63.6284,8 q 0,-1.4688 0.8047,-2.3125 0.8047,-0.8437 2.2109,-0.8437 0.4688,0 0.8985,0.0937 0.4297,0.0937 0.8359,0.2813 z m 6.876,2.5312 0,0.4844 -4.5469,0 q 0.0625,1.0156 0.6094,1.5468 0.5469,0.5313 1.5312,0.5313 0.5782,0 1.1094,-0.1406 0.5313,-0.1407 1.0625,-0.4063 l 0,0.9219 q -0.5312,0.2344 -1.0937,0.3516 -0.5625,0.1171 -1.125,0.1171 -1.4532,0 -2.2891,-0.8359 -0.8359,-0.8359 -0.8359,-2.2734 0,-1.4688 0.7968,-2.336 0.7969,-0.8671 2.1563,-0.8671 1.2031,0 1.9141,0.7812 0.7109,0.7812 0.7109,2.125 z m -1,-0.2969 q 0,-0.8125 -0.4453,-1.2969 -0.4453,-0.4843 -1.1797,-0.4843 -0.8281,0 -1.3203,0.4687 -0.4922,0.4688 -0.5703,1.3125 l 3.5156,0 z"
         style="stroke:none"
         id="path324"
         clip-path="url(#clipPath9)"
         inkscape:connector-curvature="0" />
      <path
         d="m 5.3594,22 q 0,-1.0938 -0.4532,-1.7109 -0.4531,-0.6172 -1.2343,-0.6172 -0.7813,0 -1.2266,0.6172 Q 2,20.9062 2,22 q 0,1.0938 0.4453,1.7109 0.4453,0.6172 1.2266,0.6172 0.7812,0 1.2343,-0.6172 Q 5.3594,23.0938 5.3594,22 z M 2,19.8906 q 0.2969,-0.5312 0.7734,-0.789 0.4766,-0.2578 1.1485,-0.2578 1.0937,0 1.7734,0.8671 Q 6.375,20.5781 6.375,22 q 0,1.4219 -0.6797,2.2891 -0.6797,0.8671 -1.7734,0.8671 -0.6719,0 -1.1485,-0.2578 Q 2.2969,24.6406 2,24.0938 L 2,25 l -1,0 0,-8.3594 1,0 0,3.25 z m 9.4321,-3.25 2.2657,0 0,0.7656 -1.2813,0 0,8.2813 1.2813,0 0,0.7656 -2.2657,0 0,-9.8125 z m 4.6978,7.4532 1.7812,0 0,-6.125 -1.9375,0.3906 0,-0.9844 1.9219,-0.3906 1.0938,0 0,7.1094 1.7656,0 0,0.9062 -4.625,0 0,-0.9062 z m 9.1391,-6.4063 q -0.8437,0 -1.2656,0.8281 -0.4219,0.8282 -0.4219,2.4844 0,1.6406 0.4219,2.4688 0.4219,0.8281 1.2656,0.8281 0.8438,0 1.2657,-0.8281 0.4218,-0.8282 0.4218,-2.4688 0,-1.6562 -0.4218,-2.4844 -0.4219,-0.8281 -1.2657,-0.8281 z m 0,-0.8594 q 1.3438,0 2.0547,1.0703 0.711,1.0704 0.711,3.1016 0,2.0156 -0.711,3.0859 -0.7109,1.0703 -2.0547,1.0703 -1.3437,0 -2.0625,-1.0703 Q 22.4878,23.0156 22.4878,21 q 0,-2.0312 0.7187,-3.1016 0.7188,-1.0703 2.0625,-1.0703 z m 6.9986,0.8594 q -0.8438,0 -1.2656,0.8281 -0.4219,0.8282 -0.4219,2.4844 0,1.6406 0.4219,2.4688 0.4218,0.8281 1.2656,0.8281 0.8437,0 1.2656,-0.8281 0.4219,-0.8282 0.4219,-2.4688 0,-1.6562 -0.4219,-2.4844 -0.4219,-0.8281 -1.2656,-0.8281 z m 0,-0.8594 q 1.3437,0 2.0547,1.0703 0.7109,1.0704 0.7109,3.1016 0,2.0156 -0.7109,3.0859 -0.711,1.0703 -2.0547,1.0703 -1.3438,0 -2.0625,-1.0703 Q 29.4863,23.0156 29.4863,21 q 0,-2.0312 0.7188,-3.1016 0.7187,-1.0703 2.0625,-1.0703 z m 6.9985,0.8594 q -0.8437,0 -1.2656,0.8281 -0.4219,0.8282 -0.4219,2.4844 0,1.6406 0.4219,2.4688 0.4219,0.8281 1.2656,0.8281 0.8438,0 1.2656,-0.8281 0.4219,-0.8282 0.4219,-2.4688 0,-1.6562 -0.4219,-2.4844 -0.4218,-0.8281 -1.2656,-0.8281 z m 0,-0.8594 q 1.3438,0 2.0547,1.0703 0.7109,1.0704 0.7109,3.1016 0,2.0156 -0.7109,3.0859 -0.7109,1.0703 -2.0547,1.0703 -1.3437,0 -2.0625,-1.0703 Q 36.4849,23.0156 36.4849,21 q 0,-2.0312 0.7187,-3.1016 0.7188,-1.0703 2.0625,-1.0703 z m 6.9985,0.8594 q -0.8437,0 -1.2656,0.8281 -0.4219,0.8282 -0.4219,2.4844 0,1.6406 0.4219,2.4688 0.4219,0.8281 1.2656,0.8281 0.8438,0 1.2657,-0.8281 0.4218,-0.8282 0.4218,-2.4688 0,-1.6562 -0.4218,-2.4844 -0.4219,-0.8281 -1.2657,-0.8281 z m 0,-0.8594 q 1.3438,0 2.0547,1.0703 0.711,1.0704 0.711,3.1016 0,2.0156 -0.711,3.0859 -0.7109,1.0703 -2.0547,1.0703 -1.3437,0 -2.0625,-1.0703 Q 43.4834,23.0156 43.4834,21 q 0,-2.0312 0.7187,-3.1016 0.7188,-1.0703 2.0625,-1.0703 z m 6.8423,-0.1875 0,9.8125 -2.2812,0 0,-0.7656 1.2969,0 0,-8.2813 -1.2969,0 0,-0.7656 2.2812,0 z"
         style="stroke:none"
         id="path326"
         clip-path="url(#clipPath9)"
         inkscape:connector-curvature="0" />
    </g>
    <g
       transform="translate(-20,-20)"
       id="g328">
      <polygon
         style="stroke:none"
         points="402,206 410,210 402,214 "
         id="polygon330" />
      <polygon
         style="fill:none;stroke-width:0.5"
         points="402,206 410,210 402,214 "
         id="polygon332" />
    </g>
    <g
       style="fill:#ff0000;stroke:#ff0000"
       transform="matrix(0,1,-1,0,616,-284)"
       id="g334">
      <polygon
         style="stroke:none"
         points="446,182 454,186 446,190 "
         id="polygon336" />
      <polygon
         style="fill:none;stroke-width:0.5"
         points="446,182 454,186 446,190 "
         id="polygon338" />
    </g>
    <g
       style="fill:url(#linearGradient3607);stroke:url(#linearGradient3609)"
       transform="translate(-20,-20)"
       id="g340">
      <rect
         x="350"
         y="120"
         width="90"
         style="fill:url(#linearGradient3605);stroke:none"
         rx="7"
         ry="7"
         height="40"
         id="rect342" />
      <rect
         x="350"
         y="120"
         width="90"
         style="fill:none;stroke:#010101;stroke-width:0.5"
         rx="7"
         ry="7"
         height="40"
         id="rect344" />
      <rect
         x="350"
         y="120"
         width="90"
         style="fill:url(#linearGradient13);stroke:none"
         rx="7"
         ry="7"
         height="40"
         id="rect346" />
      <rect
         x="350"
         y="120"
         width="90"
         style="fill:none;stroke:#010101;stroke-width:0.5"
         rx="7"
         ry="7"
         height="40"
         id="rect348" />
    </g>
    <g
       style="font-size:11px;font-family:sans-serif"
       transform="translate(336,106)"
       id="g350">
      <path
         d="m -0.0312,2.9844 6.7812,0 0,0.9062 -2.8438,0 0,7.1094 -1.0937,0 0,-7.1094 -2.8437,0 0,-0.9062 z m 10.1254,2.6875 q -0.7968,0 -1.2578,0.625 Q 8.3755,6.9219 8.3755,8 q 0,1.0781 0.4531,1.6953 0.4531,0.6172 1.2656,0.6172 0.7813,0 1.2422,-0.6172 0.461,-0.6172 0.461,-1.6953 0,-1.0781 -0.461,-1.7031 -0.4609,-0.625 -1.2422,-0.625 z m 0,-0.8281 q 1.2813,0 2.0157,0.8359 0.7343,0.8359 0.7343,2.3203 0,1.4688 -0.7343,2.3125 -0.7344,0.8437 -2.0157,0.8437 -1.2968,0 -2.0312,-0.8437 Q 7.3286,9.4688 7.3286,8 7.3286,6.5156 8.063,5.6797 8.7974,4.8438 10.0942,4.8438 z m 7.3204,0.1406 0.9843,0 1.2344,4.6875 1.2344,-4.6875 1.1562,0 1.2344,4.6875 1.2344,-4.6875 0.9844,0 L 23.9146,11 22.7427,11 21.4458,6.0625 20.1489,11 18.9771,11 17.4146,4.9844 z m 11.9028,0.6875 q -0.7969,0 -1.2578,0.625 -0.461,0.625 -0.461,1.7031 0,1.0781 0.4532,1.6953 0.4531,0.6172 1.2656,0.6172 0.7812,0 1.2422,-0.6172 Q 31.0205,9.0781 31.0205,8 q 0,-1.0781 -0.4609,-1.7031 -0.461,-0.625 -1.2422,-0.625 z m 0,-0.8281 q 1.2812,0 2.0156,0.8359 0.7344,0.8359 0.7344,2.3203 0,1.4688 -0.7344,2.3125 -0.7344,0.8437 -2.0156,0.8437 -1.2969,0 -2.0313,-0.8437 Q 26.5518,9.4688 26.5518,8 q 0,-1.4844 0.7343,-2.3203 0.7344,-0.8359 2.0313,-0.8359 z M 37.188,5.9062 Q 37.0317,5.8125 36.8364,5.7656 36.6411,5.7188 36.4067,5.7188 q -0.8437,0 -1.289,0.5468 -0.4453,0.5469 -0.4453,1.5625 l 0,3.1719 -1,0 0,-6.0156 1,0 0,0.9375 q 0.2968,-0.5469 0.7968,-0.8125 0.5,-0.2656 1.2188,-0.2656 0.1094,0 0.2266,0.0078 0.1171,0.0078 0.2734,0.039 l 0,1.0156 z m 1.0068,-3.2656 1,0 0,4.9375 2.9375,-2.5937 1.2656,0 -3.1875,2.8125 3.3282,3.2031 -1.2969,0 -3.0469,-2.9375 0,2.9375 -1,0 0,-8.3594 z m 10.2451,2.5156 0,0.9376 Q 48.0181,5.875 47.5649,5.7734 47.1118,5.6719 46.6274,5.6719 q -0.7343,0 -1.1015,0.2265 -0.3672,0.2266 -0.3672,0.6641 0,0.3437 0.2656,0.5391 0.2656,0.1953 1.0625,0.3828 l 0.3281,0.0781 q 1.0625,0.2187 1.5,0.6328 0.4375,0.4141 0.4375,1.1485 0,0.8281 -0.6562,1.3203 -0.6563,0.4921 -1.8281,0.4921 -0.4844,0 -1.0078,-0.0937 -0.5235,-0.0937 -1.1016,-0.2813 l 0,-1.0156 q 0.5469,0.2813 1.0781,0.4219 0.5313,0.1406 1.0625,0.1406 0.6875,0 1.0625,-0.2422 0.375,-0.2421 0.375,-0.664 0,-0.4063 -0.2656,-0.625 Q 47.2056,8.5781 46.2837,8.3906 L 45.9399,8.2969 Q 45.0181,8.1094 44.6118,7.7109 44.2056,7.3125 44.2056,6.6094 q 0,-0.8438 0.6015,-1.3047 0.6016,-0.4609 1.711,-0.4609 0.5468,0 1.0312,0.0781 Q 48.0337,5 48.4399,5.1562 z m 2.856,4.9376 0,3.1874 -1,0 0,-8.2968 1,0 0,0.9062 q 0.2969,-0.5312 0.7734,-0.789 0.4766,-0.2578 1.1485,-0.2578 1.0937,0 1.7734,0.8671 0.6797,0.8672 0.6797,2.2891 0,1.4219 -0.6797,2.2891 -0.6797,0.8671 -1.7734,0.8671 -0.6719,0 -1.1485,-0.2578 -0.4765,-0.2578 -0.7734,-0.8046 z M 54.6553,8 q 0,-1.0938 -0.4532,-1.7109 -0.4531,-0.6172 -1.2343,-0.6172 -0.7813,0 -1.2266,0.6172 Q 51.2959,6.9062 51.2959,8 q 0,1.0938 0.4453,1.7109 0.4453,0.6172 1.2266,0.6172 0.7812,0 1.2343,-0.6172 Q 54.6553,9.0938 54.6553,8 z m 5.3886,-0.0312 q -1.1875,0 -1.6484,0.2812 -0.4609,0.2812 -0.4609,0.9375 0,0.5156 0.3437,0.8281 0.3438,0.3125 0.9375,0.3125 0.8281,0 1.3203,-0.5859 0.4922,-0.586 0.4922,-1.5391 l 0,-0.2343 -0.9844,0 z m 1.9688,-0.4063 0,3.4375 -0.9844,0 0,-0.9062 q -0.3281,0.5468 -0.8359,0.8046 -0.5078,0.2578 -1.2422,0.2578 -0.9219,0 -1.4688,-0.5156 -0.5468,-0.5156 -0.5468,-1.3906 0,-1.0156 0.6797,-1.5312 0.6796,-0.5157 2.039,-0.5157 l 1.375,0 0,-0.0937 q 0,-0.6875 -0.4453,-1.0625 -0.4453,-0.375 -1.2578,-0.375 -0.5156,0 -1.0078,0.125 -0.4922,0.125 -0.9453,0.375 l 0,-0.9063 q 0.5468,-0.2187 1.0625,-0.3203 0.5156,-0.1015 0.9843,-0.1015 1.3125,0 1.9532,0.6718 0.6406,0.6719 0.6406,2.0469 z m 6.3657,-2.3437 0,0.9218 Q 67.9722,5.9062 67.5503,5.7891 67.1284,5.6719 66.6909,5.6719 q -0.9531,0 -1.4844,0.6093 Q 64.6753,6.8906 64.6753,8 q 0,1.0938 0.5312,1.7031 0.5313,0.6094 1.4844,0.6094 0.4375,0 0.8594,-0.1094 0.4219,-0.1093 0.8281,-0.3437 l 0,0.9062 q -0.4062,0.2032 -0.8515,0.2969 -0.4454,0.0937 -0.9454,0.0937 -1.3593,0 -2.1562,-0.8515 Q 63.6284,9.4531 63.6284,8 q 0,-1.4688 0.8047,-2.3125 0.8047,-0.8437 2.2109,-0.8437 0.4688,0 0.8985,0.0937 0.4297,0.0937 0.8359,0.2813 z m 6.876,2.5312 0,0.4844 -4.5469,0 q 0.0625,1.0156 0.6094,1.5468 0.5469,0.5313 1.5312,0.5313 0.5782,0 1.1094,-0.1406 0.5313,-0.1407 1.0625,-0.4063 l 0,0.9219 q -0.5312,0.2344 -1.0937,0.3516 -0.5625,0.1171 -1.125,0.1171 -1.4532,0 -2.2891,-0.8359 -0.8359,-0.8359 -0.8359,-2.2734 0,-1.4688 0.7968,-2.336 0.7969,-0.8671 2.1563,-0.8671 1.2031,0 1.9141,0.7812 0.7109,0.7812 0.7109,2.125 z m -1,-0.2969 q 0,-0.8125 -0.4453,-1.2969 -0.4453,-0.4843 -1.1797,-0.4843 -0.8281,0 -1.3203,0.4687 -0.4922,0.4688 -0.5703,1.3125 l 3.5156,0 z"
         style="stroke:none"
         id="path352"
         clip-path="url(#clipPath9)"
         inkscape:connector-curvature="0" />
      <path
         d="m 3.7656,21.9688 q -1.1875,0 -1.6484,0.2812 -0.461,0.2812 -0.461,0.9375 0,0.5156 0.3438,0.8281 0.3438,0.3125 0.9375,0.3125 0.8281,0 1.3203,-0.5859 Q 4.75,23.1562 4.75,22.2031 l 0,-0.2343 -0.9844,0 z m 1.9688,-0.4063 0,3.4375 -0.9844,0 0,-0.9062 Q 4.4219,24.6406 3.9141,24.8984 3.4062,25.1562 2.6719,25.1562 1.75,25.1562 1.2031,24.6406 0.6562,24.125 0.6562,23.25 q 0,-1.0156 0.6797,-1.5312 0.6797,-0.5157 2.0391,-0.5157 l 1.375,0 0,-0.0937 q 0,-0.6875 -0.4453,-1.0625 -0.4453,-0.375 -1.2578,-0.375 -0.5157,0 -1.0078,0.125 -0.4922,0.125 -0.9453,0.375 l 0,-0.9063 q 0.5468,-0.2187 1.0624,-0.3203 0.5157,-0.1015 0.9844,-0.1015 1.3125,0 1.9532,0.6718 0.6406,0.6719 0.6406,2.0469 z m 5.456,-4.9219 2.2657,0 0,0.7656 -1.2813,0 0,8.2813 1.2813,0 0,0.7656 -2.2657,0 0,-9.8125 z m 4.6978,7.4532 1.7812,0 0,-6.125 -1.9375,0.3906 0,-0.9844 1.9219,-0.3906 1.0938,0 0,7.1094 1.7656,0 0,0.9062 -4.625,0 0,-0.9062 z m 9.1391,-6.4063 q -0.8437,0 -1.2656,0.8281 -0.4219,0.8282 -0.4219,2.4844 0,1.6406 0.4219,2.4688 0.4219,0.8281 1.2656,0.8281 0.8438,0 1.2657,-0.8281 0.4218,-0.8282 0.4218,-2.4688 0,-1.6562 -0.4218,-2.4844 -0.4219,-0.8281 -1.2657,-0.8281 z m 0,-0.8594 q 1.3438,0 2.0547,1.0703 0.711,1.0704 0.711,3.1016 0,2.0156 -0.711,3.0859 -0.7109,1.0703 -2.0547,1.0703 -1.3437,0 -2.0625,-1.0703 Q 22.2461,23.0156 22.2461,21 q 0,-2.0312 0.7187,-3.1016 0.7188,-1.0703 2.0625,-1.0703 z m 6.9986,0.8594 q -0.8438,0 -1.2656,0.8281 -0.4219,0.8282 -0.4219,2.4844 0,1.6406 0.4219,2.4688 0.4218,0.8281 1.2656,0.8281 0.8437,0 1.2656,-0.8281 0.4219,-0.8282 0.4219,-2.4688 0,-1.6562 -0.4219,-2.4844 -0.4219,-0.8281 -1.2656,-0.8281 z m 0,-0.8594 q 1.3437,0 2.0547,1.0703 0.7109,1.0704 0.7109,3.1016 0,2.0156 -0.7109,3.0859 -0.711,1.0703 -2.0547,1.0703 -1.3438,0 -2.0625,-1.0703 Q 29.2446,23.0156 29.2446,21 q 0,-2.0312 0.7188,-3.1016 0.7187,-1.0703 2.0625,-1.0703 z m 6.9985,0.8594 q -0.8437,0 -1.2656,0.8281 -0.4219,0.8282 -0.4219,2.4844 0,1.6406 0.4219,2.4688 0.4219,0.8281 1.2656,0.8281 0.8438,0 1.2656,-0.8281 0.4219,-0.8282 0.4219,-2.4688 0,-1.6562 -0.4219,-2.4844 -0.4218,-0.8281 -1.2656,-0.8281 z m 0,-0.8594 q 1.3438,0 2.0547,1.0703 Q 41.79,18.9688 41.79,21 q 0,2.0156 -0.7109,3.0859 -0.7109,1.0703 -2.0547,1.0703 -1.3437,0 -2.0625,-1.0703 Q 36.2432,23.0156 36.2432,21 q 0,-2.0312 0.7187,-3.1016 0.7188,-1.0703 2.0625,-1.0703 z m 6.9985,0.8594 q -0.8437,0 -1.2656,0.8281 -0.4219,0.8282 -0.4219,2.4844 0,1.6406 0.4219,2.4688 0.4219,0.8281 1.2656,0.8281 0.8438,0 1.2657,-0.8281 0.4218,-0.8282 0.4218,-2.4688 0,-1.6562 -0.4218,-2.4844 -0.4219,-0.8281 -1.2657,-0.8281 z m 0,-0.8594 q 1.3438,0 2.0547,1.0703 0.711,1.0704 0.711,3.1016 0,2.0156 -0.711,3.0859 -0.7109,1.0703 -2.0547,1.0703 -1.3437,0 -2.0625,-1.0703 Q 43.2417,23.0156 43.2417,21 q 0,-2.0312 0.7187,-3.1016 0.7188,-1.0703 2.0625,-1.0703 z m 6.8423,-0.1875 0,9.8125 -2.2812,0 0,-0.7656 1.2969,0 0,-8.2813 -1.2969,0 0,-0.7656 2.2812,0 z"
         style="stroke:none"
         id="path354"
         clip-path="url(#clipPath9)"
         inkscape:connector-curvature="0" />
    </g>
    <g
       transform="translate(-20,-20)"
       id="g356">
      <polygon
         style="stroke:none"
         points="342,136 350,140 342,144 "
         id="polygon358" />
      <polygon
         style="fill:none;stroke-width:0.5"
         points="342,136 350,140 342,144 "
         id="polygon360" />
    </g>
    <g
       style="fill:#ff0000;stroke:#ff0000"
       transform="matrix(0,1,-1,0,486,-294)"
       id="g362">
      <polygon
         style="stroke:none"
         points="386,112 394,116 386,120 "
         id="polygon364" />
      <polygon
         style="fill:none;stroke-width:0.5"
         points="386,112 394,116 386,120 "
         id="polygon366" />
    </g>
    <g
       style="fill:#010101;stroke:#010101"
       transform="translate(-20,-20)"
       id="g368">
      <path
         style="fill:none"
         d="m 358.5,210 43,0"
         id="path370"
         inkscape:connector-curvature="0" />
    </g>
    <g
       style="fill:#ffffff;stroke:#ffffff"
       transform="translate(-20,-20)"
       id="g372">
      <rect
         x="277"
         width="7"
         height="7"
         y="207"
         style="stroke:none"
         id="rect374" />
      <rect
         x="277"
         y="207"
         width="7"
         style="fill:none;stroke:#010101;stroke-width:0.5"
         height="7"
         id="rect376" />
    </g>
    <g
       style="fill:#010101;stroke:#010101"
       transform="translate(-20,-20)"
       id="g378">
      <path
         style="fill:none"
         d="m 248.3933,210.0602 28.1068,0.385"
         id="path380"
         inkscape:connector-curvature="0" />
    </g>
    <g
       style="fill:#010101;stroke:#010101"
       transform="translate(-20,-20)"
       id="g382">
      <path
         style="fill:none"
         d="m 284.4999,210.4216 17.0002,-0.3334"
         id="path384"
         inkscape:connector-curvature="0" />
    </g>
    <g
       style="fill:#010101;stroke:#010101"
       transform="translate(-20,-20)"
       id="g386">
      <path
         style="fill:none"
         d="M 280.4716,206.5 280,140 l 61.5,0"
         id="path388"
         inkscape:connector-curvature="0" />
    </g>
    <g
       transform="matrix(16,0,0,16,229,177)"
       style="font-size:1px;font-family:jlm_cmmi10"
       id="g390">
      <path
         style="stroke:none"
         d="m 0.375,-0.375 q 0,-0.0312 0.0312,-0.0469 0,0 0.0157,0 0.0156,0 0.0156,0.0313 0,0 0,0.0312 l -0.0313,0.1406 q -0.0156,0.0626 -0.0312,0.0938 -0.0156,0.0469 -0.0156,0.0625 0,0.0469 0.0312,0.0469 0.0469,0 0.0625,-0.0782 0.0157,-0.0156 0.0157,-0.0468 0.0156,-0.0156 0.0156,-0.0156 0.0156,0 0.0156,0.0156 0,0.0156 -0.0156,0.0625 -0.0156,0.0156 -0.0156,0.0312 -0.0313,0.0625 -0.0782,0.0625 -0.0468,0 -0.0781,-0.0468 0,-0.0157 -0.0156,-0.0313 -0.0625,0.0781 -0.125,0.0781 -0.0781,0 -0.1094,-0.0781 -0.0156,-0.0313 -0.0156,-0.0937 0,-0.0938 0.0625,-0.1876 0.0781,-0.0937 0.1562,-0.0937 0.0156,0 0.0156,0 0.0626,0 0.0938,0.0625 z m -0.0625,0.25 0,0 0.0469,-0.1875 q 0,-0.0156 0,-0.0156 0,-0.0313 -0.0156,-0.0625 -0.0157,-0.0313 -0.0626,-0.0313 -0.0468,0 -0.0937,0.0625 -0.0156,0.0156 -0.0156,0.0313 -0.0313,0.0625 -0.0625,0.1719 0,0.0312 0,0.0468 0,0.0782 0.0468,0.0938 0,0 0.0157,0 0.0625,0 0.1093,-0.0625 0.0157,-0.0157 0.0313,-0.0313 l 0,0 q 0,-0.0156 0,-0.0156 z"
         id="path392"
         inkscape:connector-curvature="0" />
    </g>
    <g
       transform="matrix(16,0,0,16,237.4576,177)"
       style="font-size:1px;font-family:jlm_cmr10"
       id="g394">
      <path
         style="stroke:none"
         d="m 0.3281,0.2344 0,0 q 0,0.0156 0,0.0156 Q 0.3125,0.25 0.2656,0.2031 0.2031,0.1406 0.1719,0.0625 0.0938,-0.0781 0.0938,-0.25 q 0,-0.1719 0.0624,-0.3125 0.0626,-0.1094 0.1407,-0.1719 0.0156,-0.0156 0.0312,-0.0156 0,0 0,0.0156 0,0 -0.0156,0.0156 -0.1563,0.1563 -0.1563,0.4688 0,0.3125 0.1563,0.4688 0.0156,0.0156 0.0156,0.0156 z"
         id="path396"
         inkscape:connector-curvature="0" />
    </g>
    <g
       transform="matrix(16,0,0,16,243.68,177)"
       style="font-size:1px;font-family:jlm_cmmi10"
       id="g398">
      <path
         style="stroke:none"
         d="M 0.2031,-0.4062 0.125,-0.1094 q 0,0.0313 0,0.0469 0,0.0469 0.0312,0.0469 0.0626,0 0.1094,-0.0938 l 0.0156,-0.0312 q 0.0157,-0.0156 0.0157,-0.0156 0.0156,0 0.0156,0.0156 0,0.0156 -0.0313,0.0468 -0.0468,0.1094 -0.125,0.1094 -0.0624,0 -0.0781,-0.0468 -0.0156,-0.0313 -0.0156,-0.0469 0,-0.0157 0.0625,-0.2657 l 0.0156,-0.0624 -0.0937,0 q -0.0157,0 -0.0157,0 l -0.0156,0 0,0 q 0,-0.0157 0.0156,-0.0313 l 0.0157,0 0.0937,0 0.0469,-0.1563 q 0,-0.0312 0.0313,-0.0312 0.0312,0 0.0312,0.0312 0,0 -0.0312,0.1563 l 0.0781,0 q 0.0312,0 0.0312,0.0156 0,0.0157 -0.0156,0.0157 l 0,0 -0.0156,0 -0.0938,0 z"
         id="path400"
         inkscape:connector-curvature="0" />
    </g>
    <g
       transform="matrix(16,0,0,16,249.4576,177)"
       style="font-size:1px;font-family:jlm_cmr10"
       id="g402">
      <path
         style="stroke:none"
         d="m 0.2812,-0.25 0,0 q 0,0.1719 -0.0624,0.3125 Q 0.1719,0.1719 0.0938,0.2344 0.0781,0.25 0.0625,0.25 q 0,0 0,-0.0156 0,0 0,-0.0156 0.1719,-0.1563 0.1719,-0.4688 0,-0.3125 -0.1563,-0.4688 l 0,0 q -0.0156,-0.0156 -0.0156,-0.0156 0,-0.0156 0,-0.0156 0.0156,0 0.0625,0.0469 0.0625,0.0625 0.0938,0.1406 0.0624,0.1406 0.0624,0.3125 z"
         id="path404"
         inkscape:connector-curvature="0" />
    </g>
    <g
       transform="matrix(16,0,0,16,350,177)"
       style="font-size:1px;font-family:jlm_cmmi10"
       id="g406">
      <path
         style="stroke:none"
         d="M 0.2344,-0.6875 0.1719,-0.375 q 0.0469,-0.0625 0.1093,-0.0625 0.0782,0 0.1094,0.0625 0.0313,0.0469 0.0313,0.0938 0,0.1093 -0.0781,0.2031 Q 0.2656,0 0.1875,0.0156 q 0,0 -0.0156,0 -0.0625,0 -0.1094,-0.0781 -0.0156,-0.0313 -0.0156,-0.0781 0,-0.0469 0.0156,-0.1094 l 0.0781,-0.3281 q 0.0156,-0.0469 0.0156,-0.0625 0,0 -0.0156,-0.0156 l 0,0 q 0,0 -0.0312,0 -0.0156,0 -0.0313,0 0,-0.0313 0.0313,-0.0313 l 0.1094,0 q 0.0156,0 0.0156,0 z m -0.0938,0.375 -0.0156,0.0937 q -0.0156,0.0626 -0.0156,0.1094 0,0.0782 0.0468,0.0938 0.0157,0 0.0157,0 0.0625,0 0.0937,-0.0625 0.0156,-0.0157 0.0313,-0.0313 0.0156,-0.0625 0.0469,-0.1562 0,-0.0313 0,-0.0625 0,-0.0781 -0.0469,-0.0938 l 0,0 q -0.0157,0 -0.0157,0 -0.0624,0 -0.125,0.0781 0,0.0157 -0.0156,0.0313 z"
         id="path408"
         inkscape:connector-curvature="0" />
    </g>
    <g
       transform="matrix(16,0,0,16,356.8672,177)"
       style="font-size:1px;font-family:jlm_cmr10"
       id="g410">
      <path
         style="stroke:none"
         d="m 0.3281,0.2344 0,0 q 0,0.0156 0,0.0156 Q 0.3125,0.25 0.2656,0.2031 0.2031,0.1406 0.1719,0.0625 0.0938,-0.0781 0.0938,-0.25 q 0,-0.1719 0.0624,-0.3125 0.0626,-0.1094 0.1407,-0.1719 0.0156,-0.0156 0.0312,-0.0156 0,0 0,0.0156 0,0 -0.0156,0.0156 -0.1563,0.1563 -0.1563,0.4688 0,0.3125 0.1563,0.4688 0.0156,0.0156 0.0156,0.0156 z"
         id="path412"
         inkscape:connector-curvature="0" />
    </g>
    <g
       transform="matrix(16,0,0,16,363.0896,177)"
       style="font-size:1px;font-family:jlm_cmmi10"
       id="g414">
      <path
         style="stroke:none"
         d="M 0.2031,-0.4062 0.125,-0.1094 q 0,0.0313 0,0.0469 0,0.0469 0.0312,0.0469 0.0626,0 0.1094,-0.0938 l 0.0156,-0.0312 q 0.0157,-0.0156 0.0157,-0.0156 0.0156,0 0.0156,0.0156 0,0.0156 -0.0313,0.0468 -0.0468,0.1094 -0.125,0.1094 -0.0624,0 -0.0781,-0.0468 -0.0156,-0.0313 -0.0156,-0.0469 0,-0.0157 0.0625,-0.2657 l 0.0156,-0.0624 -0.0937,0 q -0.0157,0 -0.0157,0 l -0.0156,0 0,0 q 0,-0.0157 0.0156,-0.0313 l 0.0157,0 0.0937,0 0.0469,-0.1563 q 0,-0.0312 0.0313,-0.0312 0.0312,0 0.0312,0.0312 0,0 -0.0312,0.1563 l 0.0781,0 q 0.0312,0 0.0312,0.0156 0,0.0157 -0.0156,0.0157 l 0,0 -0.0156,0 -0.0938,0 z"
         id="path416"
         inkscape:connector-curvature="0" />
    </g>
    <g
       transform="matrix(16,0,0,16,368.8672,177)"
       style="font-size:1px;font-family:jlm_cmr10"
       id="g418">
      <path
         style="stroke:none"
         d="m 0.2812,-0.25 0,0 q 0,0.1719 -0.0624,0.3125 Q 0.1719,0.1719 0.0938,0.2344 0.0781,0.25 0.0625,0.25 q 0,0 0,-0.0156 0,0 0,-0.0156 0.1719,-0.1563 0.1719,-0.4688 0,-0.3125 -0.1563,-0.4688 l 0,0 q -0.0156,-0.0156 -0.0156,-0.0156 0,-0.0156 0,-0.0156 0.0156,0 0.0625,0.0469 0.0625,0.0625 0.0938,0.1406 0.0624,0.1406 0.0624,0.3125 z"
         id="path420"
         inkscape:connector-curvature="0" />
    </g>
    <g
       style="fill:url(#linearGradient3613);stroke:url(#linearGradient3615)"
       transform="translate(-20,-20)"
       id="g422">
      <rect
         x="470"
         y="260"
         width="90"
         style="fill:url(#linearGradient3611);stroke:none"
         rx="7"
         ry="7"
         height="40"
         id="rect424" />
      <rect
         x="470"
         y="260"
         width="90"
         style="fill:none;stroke:#010101;stroke-width:0.5"
         rx="7"
         ry="7"
         height="40"
         id="rect426" />
      <rect
         x="470"
         y="260"
         width="90"
         style="fill:url(#linearGradient15);stroke:none"
         rx="7"
         ry="7"
         height="40"
         id="rect428" />
      <rect
         x="470"
         y="260"
         width="90"
         style="fill:none;stroke:#010101;stroke-width:0.5"
         rx="7"
         ry="7"
         height="40"
         id="rect430" />
    </g>
    <g
       style="font-size:11px;font-family:sans-serif"
       transform="translate(456,246)"
       id="g432">
      <path
         d="m -0.0312,2.9844 6.7812,0 0,0.9062 -2.8438,0 0,7.1094 -1.0937,0 0,-7.1094 -2.8437,0 0,-0.9062 z m 10.1254,2.6875 q -0.7968,0 -1.2578,0.625 Q 8.3755,6.9219 8.3755,8 q 0,1.0781 0.4531,1.6953 0.4531,0.6172 1.2656,0.6172 0.7813,0 1.2422,-0.6172 0.461,-0.6172 0.461,-1.6953 0,-1.0781 -0.461,-1.7031 -0.4609,-0.625 -1.2422,-0.625 z m 0,-0.8281 q 1.2813,0 2.0157,0.8359 0.7343,0.8359 0.7343,2.3203 0,1.4688 -0.7343,2.3125 -0.7344,0.8437 -2.0157,0.8437 -1.2968,0 -2.0312,-0.8437 Q 7.3286,9.4688 7.3286,8 7.3286,6.5156 8.063,5.6797 8.7974,4.8438 10.0942,4.8438 z m 7.3204,0.1406 0.9843,0 1.2344,4.6875 1.2344,-4.6875 1.1562,0 1.2344,4.6875 1.2344,-4.6875 0.9844,0 L 23.9146,11 22.7427,11 21.4458,6.0625 20.1489,11 18.9771,11 17.4146,4.9844 z m 11.9028,0.6875 q -0.7969,0 -1.2578,0.625 -0.461,0.625 -0.461,1.7031 0,1.0781 0.4532,1.6953 0.4531,0.6172 1.2656,0.6172 0.7812,0 1.2422,-0.6172 Q 31.0205,9.0781 31.0205,8 q 0,-1.0781 -0.4609,-1.7031 -0.461,-0.625 -1.2422,-0.625 z m 0,-0.8281 q 1.2812,0 2.0156,0.8359 0.7344,0.8359 0.7344,2.3203 0,1.4688 -0.7344,2.3125 -0.7344,0.8437 -2.0156,0.8437 -1.2969,0 -2.0313,-0.8437 Q 26.5518,9.4688 26.5518,8 q 0,-1.4844 0.7343,-2.3203 0.7344,-0.8359 2.0313,-0.8359 z M 37.188,5.9062 Q 37.0317,5.8125 36.8364,5.7656 36.6411,5.7188 36.4067,5.7188 q -0.8437,0 -1.289,0.5468 -0.4453,0.5469 -0.4453,1.5625 l 0,3.1719 -1,0 0,-6.0156 1,0 0,0.9375 q 0.2968,-0.5469 0.7968,-0.8125 0.5,-0.2656 1.2188,-0.2656 0.1094,0 0.2266,0.0078 0.1171,0.0078 0.2734,0.039 l 0,1.0156 z m 1.0068,-3.2656 1,0 0,4.9375 2.9375,-2.5937 1.2656,0 -3.1875,2.8125 3.3282,3.2031 -1.2969,0 -3.0469,-2.9375 0,2.9375 -1,0 0,-8.3594 z m 10.2451,2.5156 0,0.9376 Q 48.0181,5.875 47.5649,5.7734 47.1118,5.6719 46.6274,5.6719 q -0.7343,0 -1.1015,0.2265 -0.3672,0.2266 -0.3672,0.6641 0,0.3437 0.2656,0.5391 0.2656,0.1953 1.0625,0.3828 l 0.3281,0.0781 q 1.0625,0.2187 1.5,0.6328 0.4375,0.4141 0.4375,1.1485 0,0.8281 -0.6562,1.3203 -0.6563,0.4921 -1.8281,0.4921 -0.4844,0 -1.0078,-0.0937 -0.5235,-0.0937 -1.1016,-0.2813 l 0,-1.0156 q 0.5469,0.2813 1.0781,0.4219 0.5313,0.1406 1.0625,0.1406 0.6875,0 1.0625,-0.2422 0.375,-0.2421 0.375,-0.664 0,-0.4063 -0.2656,-0.625 Q 47.2056,8.5781 46.2837,8.3906 L 45.9399,8.2969 Q 45.0181,8.1094 44.6118,7.7109 44.2056,7.3125 44.2056,6.6094 q 0,-0.8438 0.6015,-1.3047 0.6016,-0.4609 1.711,-0.4609 0.5468,0 1.0312,0.0781 Q 48.0337,5 48.4399,5.1562 z m 2.856,4.9376 0,3.1874 -1,0 0,-8.2968 1,0 0,0.9062 q 0.2969,-0.5312 0.7734,-0.789 0.4766,-0.2578 1.1485,-0.2578 1.0937,0 1.7734,0.8671 0.6797,0.8672 0.6797,2.2891 0,1.4219 -0.6797,2.2891 -0.6797,0.8671 -1.7734,0.8671 -0.6719,0 -1.1485,-0.2578 -0.4765,-0.2578 -0.7734,-0.8046 z M 54.6553,8 q 0,-1.0938 -0.4532,-1.7109 -0.4531,-0.6172 -1.2343,-0.6172 -0.7813,0 -1.2266,0.6172 Q 51.2959,6.9062 51.2959,8 q 0,1.0938 0.4453,1.7109 0.4453,0.6172 1.2266,0.6172 0.7812,0 1.2343,-0.6172 Q 54.6553,9.0938 54.6553,8 z m 5.3886,-0.0312 q -1.1875,0 -1.6484,0.2812 -0.4609,0.2812 -0.4609,0.9375 0,0.5156 0.3437,0.8281 0.3438,0.3125 0.9375,0.3125 0.8281,0 1.3203,-0.5859 0.4922,-0.586 0.4922,-1.5391 l 0,-0.2343 -0.9844,0 z m 1.9688,-0.4063 0,3.4375 -0.9844,0 0,-0.9062 q -0.3281,0.5468 -0.8359,0.8046 -0.5078,0.2578 -1.2422,0.2578 -0.9219,0 -1.4688,-0.5156 -0.5468,-0.5156 -0.5468,-1.3906 0,-1.0156 0.6797,-1.5312 0.6796,-0.5157 2.039,-0.5157 l 1.375,0 0,-0.0937 q 0,-0.6875 -0.4453,-1.0625 -0.4453,-0.375 -1.2578,-0.375 -0.5156,0 -1.0078,0.125 -0.4922,0.125 -0.9453,0.375 l 0,-0.9063 q 0.5468,-0.2187 1.0625,-0.3203 0.5156,-0.1015 0.9843,-0.1015 1.3125,0 1.9532,0.6718 0.6406,0.6719 0.6406,2.0469 z m 6.3657,-2.3437 0,0.9218 Q 67.9722,5.9062 67.5503,5.7891 67.1284,5.6719 66.6909,5.6719 q -0.9531,0 -1.4844,0.6093 Q 64.6753,6.8906 64.6753,8 q 0,1.0938 0.5312,1.7031 0.5313,0.6094 1.4844,0.6094 0.4375,0 0.8594,-0.1094 0.4219,-0.1093 0.8281,-0.3437 l 0,0.9062 q -0.4062,0.2032 -0.8515,0.2969 -0.4454,0.0937 -0.9454,0.0937 -1.3593,0 -2.1562,-0.8515 Q 63.6284,9.4531 63.6284,8 q 0,-1.4688 0.8047,-2.3125 0.8047,-0.8437 2.2109,-0.8437 0.4688,0 0.8985,0.0937 0.4297,0.0937 0.8359,0.2813 z m 6.876,2.5312 0,0.4844 -4.5469,0 q 0.0625,1.0156 0.6094,1.5468 0.5469,0.5313 1.5312,0.5313 0.5782,0 1.1094,-0.1406 0.5313,-0.1407 1.0625,-0.4063 l 0,0.9219 q -0.5312,0.2344 -1.0937,0.3516 -0.5625,0.1171 -1.125,0.1171 -1.4532,0 -2.2891,-0.8359 -0.8359,-0.8359 -0.8359,-2.2734 0,-1.4688 0.7968,-2.336 0.7969,-0.8671 2.1563,-0.8671 1.2031,0 1.9141,0.7812 0.7109,0.7812 0.7109,2.125 z m -1,-0.2969 q 0,-0.8125 -0.4453,-1.2969 -0.4453,-0.4843 -1.1797,-0.4843 -0.8281,0 -1.3203,0.4687 -0.4922,0.4688 -0.5703,1.3125 l 3.5156,0 z"
         style="stroke:none"
         id="path434"
         clip-path="url(#clipPath9)"
         inkscape:connector-curvature="0" />
      <path
         d="m 5.3594,19.2188 0,0.9218 Q 4.9531,19.9062 4.5312,19.7891 4.1094,19.6719 3.6719,19.6719 q -0.9531,0 -1.4844,0.6093 Q 1.6562,20.8906 1.6562,22 q 0,1.0938 0.5313,1.7031 0.5313,0.6094 1.4844,0.6094 0.4375,0 0.8593,-0.1094 0.4219,-0.1093 0.8282,-0.3437 l 0,0.9062 q -0.4063,0.2032 -0.8516,0.2969 -0.4453,0.0937 -0.9453,0.0937 -1.3594,0 -2.1563,-0.8515 Q 0.6094,23.4531 0.6094,22 q 0,-1.4688 0.8047,-2.3125 0.8047,-0.8437 2.2109,-0.8437 0.4688,0 0.8984,0.0937 0.4297,0.0937 0.836,0.2813 z m 5.1382,-2.5782 2.2656,0 0,0.7656 -1.2813,0 0,8.2813 1.2813,0 0,0.7656 -2.2656,0 0,-9.8125 z m 4.6977,7.4532 1.7813,0 0,-6.125 -1.9375,0.3906 0,-0.9844 1.9218,-0.3906 1.0938,0 0,7.1094 1.7656,0 0,0.9062 -4.625,0 0,-0.9062 z m 9.1392,-6.4063 q -0.8438,0 -1.2657,0.8281 Q 22.647,19.3438 22.647,21 q 0,1.6406 0.4218,2.4688 0.4219,0.8281 1.2657,0.8281 0.8437,0 1.2656,-0.8281 Q 26.022,22.6406 26.022,21 q 0,-1.6562 -0.4219,-2.4844 -0.4219,-0.8281 -1.2656,-0.8281 z m 0,-0.8594 q 1.3437,0 2.0547,1.0703 0.7109,1.0704 0.7109,3.1016 0,2.0156 -0.7109,3.0859 -0.711,1.0703 -2.0547,1.0703 -1.3438,0 -2.0625,-1.0703 Q 21.5532,23.0156 21.5532,21 q 0,-2.0312 0.7188,-3.1016 0.7187,-1.0703 2.0625,-1.0703 z m 6.9985,0.8594 q -0.8437,0 -1.2656,0.8281 -0.4219,0.8282 -0.4219,2.4844 0,1.6406 0.4219,2.4688 0.4219,0.8281 1.2656,0.8281 0.8438,0 1.2656,-0.8281 0.4219,-0.8282 0.4219,-2.4688 0,-1.6562 -0.4219,-2.4844 -0.4218,-0.8281 -1.2656,-0.8281 z m 0,-0.8594 q 1.3438,0 2.0547,1.0703 0.7109,1.0704 0.7109,3.1016 0,2.0156 -0.7109,3.0859 -0.7109,1.0703 -2.0547,1.0703 -1.3437,0 -2.0625,-1.0703 Q 28.5518,23.0156 28.5518,21 q 0,-2.0312 0.7187,-3.1016 0.7188,-1.0703 2.0625,-1.0703 z m 6.9985,0.8594 q -0.8437,0 -1.2656,0.8281 Q 36.644,19.3438 36.644,21 q 0,1.6406 0.4219,2.4688 0.4219,0.8281 1.2656,0.8281 0.8438,0 1.2657,-0.8281 Q 40.019,22.6406 40.019,21 q 0,-1.6562 -0.4218,-2.4844 -0.4219,-0.8281 -1.2657,-0.8281 z m 0,-0.8594 q 1.3438,0 2.0547,1.0703 0.711,1.0704 0.711,3.1016 0,2.0156 -0.711,3.0859 -0.7109,1.0703 -2.0547,1.0703 -1.3437,0 -2.0625,-1.0703 Q 35.5503,23.0156 35.5503,21 q 0,-2.0312 0.7187,-3.1016 0.7188,-1.0703 2.0625,-1.0703 z m 6.9986,0.8594 q -0.8438,0 -1.2656,0.8281 -0.4219,0.8282 -0.4219,2.4844 0,1.6406 0.4219,2.4688 0.4218,0.8281 1.2656,0.8281 0.8437,0 1.2656,-0.8281 0.4219,-0.8282 0.4219,-2.4688 0,-1.6562 -0.4219,-2.4844 -0.4219,-0.8281 -1.2656,-0.8281 z m 0,-0.8594 q 1.3437,0 2.0547,1.0703 0.7109,1.0704 0.7109,3.1016 0,2.0156 -0.7109,3.0859 -0.711,1.0703 -2.0547,1.0703 -1.3438,0 -2.0625,-1.0703 Q 42.5488,23.0156 42.5488,21 q 0,-2.0312 0.7188,-3.1016 0.7187,-1.0703 2.0625,-1.0703 z m 6.8423,-0.1875 0,9.8125 -2.2813,0 0,-0.7656 1.2969,0 0,-8.2813 -1.2969,0 0,-0.7656 2.2813,0 z"
         style="stroke:none"
         id="path436"
         clip-path="url(#clipPath9)"
         inkscape:connector-curvature="0" />
    </g>
    <g
       transform="translate(-20,-20)"
       id="g438">
      <polygon
         style="stroke:none"
         points="462,276 470,280 462,284 "
         id="polygon440" />
      <polygon
         style="fill:none;stroke-width:0.5"
         points="462,276 470,280 462,284 "
         id="polygon442" />
    </g>
    <g
       style="fill:#ff0000;stroke:#ff0000"
       transform="matrix(0,1,-1,0,746,-274)"
       id="g444">
      <polygon
         style="stroke:none"
         points="506,252 514,256 506,260 "
         id="polygon446" />
      <polygon
         style="fill:none;stroke-width:0.5"
         points="506,252 514,256 506,260 "
         id="polygon448" />
    </g>
    <g
       style="fill:#010101;stroke:#010101"
       transform="translate(-20,-20)"
       id="g450">
      <path
         style="fill:none"
         d="m 248.5,280 213,0"
         id="path452"
         inkscape:connector-curvature="0" />
    </g>
    <g
       style="fill:#ffffff;stroke:#ffffff"
       transform="translate(-20,-20)"
       id="g454">
      <rect
         x="447"
         width="7"
         height="7"
         y="87"
         style="stroke:none"
         id="rect456" />
      <rect
         x="447"
         y="87"
         width="7"
         style="fill:none;stroke:#010101;stroke-width:0.5"
         height="7"
         id="rect458" />
    </g>
    <g
       style="fill:#010101;stroke:#010101"
       transform="translate(-20,-20)"
       id="g460">
      <path
         style="fill:none"
         d="m 450.0468,66.4812 0.3777,20.0189"
         id="path462"
         inkscape:connector-curvature="0" />
    </g>
    <g
       style="fill:#010101;stroke:#010101"
       transform="translate(-20,-20)"
       id="g464">
      <path
         style="fill:none"
         d="m 446.5,90 -56.5,0 0,23.5"
         id="path466"
         inkscape:connector-curvature="0" />
    </g>
    <g
       style="fill:#ffffff;stroke:#ffffff"
       transform="translate(-20,-20)"
       id="g468">
      <rect
         x="447"
         width="7"
         height="7"
         y="87"
         style="stroke:none"
         id="rect470" />
      <rect
         x="447"
         y="87"
         width="7"
         style="fill:none;stroke:#010101;stroke-width:0.5"
         height="7"
         id="rect472" />
    </g>
    <g
       style="fill:#010101;stroke:#010101"
       transform="translate(-20,-20)"
       id="g474">
      <path
         style="fill:none"
         d="m 454,90.5 0,0"
         id="path476"
         inkscape:connector-curvature="0" />
    </g>
    <g
       style="fill:#010101;stroke:#010101"
       transform="translate(-20,-20)"
       id="g478">
      <path
         style="fill:none"
         d="m 450.4791,94.5 -0.466,89.0052"
         id="path480"
         inkscape:connector-curvature="0" />
    </g>
    <g
       transform="matrix(16,0,0,16,310,247)"
       style="font-size:1px;font-family:jlm_cmmi10"
       id="g482">
      <path
         style="stroke:none"
         d="m 0.3906,-0.375 0,0 Q 0.375,-0.4219 0.3125,-0.4219 q -0.0625,0 -0.125,0.0625 -0.0156,0.0156 -0.0156,0.0469 -0.0469,0.0625 -0.0625,0.1719 0,0.0156 0,0.0156 0,0.0938 0.0625,0.1094 0.0156,0 0.0312,0 0.0938,0 0.1563,-0.0625 0.0312,-0.0157 0.0468,-0.0313 0,-0.0156 0.0157,-0.0156 0,0 0.0156,0.0156 0,0.0156 -0.0469,0.0469 -0.0781,0.0781 -0.1875,0.0781 -0.0937,0 -0.1406,-0.0781 -0.0156,-0.0469 -0.0156,-0.0937 0,-0.1094 0.0781,-0.1876 0.0781,-0.0937 0.1719,-0.0937 0,0 0.0156,0 0.0781,0 0.1094,0.0469 0,0.0156 0,0.0312 0,0.0469 -0.0313,0.0625 -0.0156,0 -0.0156,0 -0.0312,0 -0.0469,-0.0156 0,-0.0156 0,-0.0156 0,-0.0157 0.0313,-0.0313 0,-0.0156 0.0312,-0.0156 z"
         id="path484"
         inkscape:connector-curvature="0" />
    </g>
    <g
       transform="matrix(16,0,0,16,316.9248,247)"
       style="font-size:1px;font-family:jlm_cmr10"
       id="g486">
      <path
         style="stroke:none"
         d="m 0.3281,0.2344 0,0 q 0,0.0156 0,0.0156 Q 0.3125,0.25 0.2656,0.2031 0.2031,0.1406 0.1719,0.0625 0.0938,-0.0781 0.0938,-0.25 q 0,-0.1719 0.0624,-0.3125 0.0626,-0.1094 0.1407,-0.1719 0.0156,-0.0156 0.0312,-0.0156 0,0 0,0.0156 0,0 -0.0156,0.0156 -0.1563,0.1563 -0.1563,0.4688 0,0.3125 0.1563,0.4688 0.0156,0.0156 0.0156,0.0156 z"
         id="path488"
         inkscape:connector-curvature="0" />
    </g>
    <g
       transform="matrix(16,0,0,16,323.1456,247)"
       style="font-size:1px;font-family:jlm_cmmi10"
       id="g490">
      <path
         style="stroke:none"
         d="M 0.2031,-0.4062 0.125,-0.1094 q 0,0.0313 0,0.0469 0,0.0469 0.0312,0.0469 0.0626,0 0.1094,-0.0938 l 0.0156,-0.0312 q 0.0157,-0.0156 0.0157,-0.0156 0.0156,0 0.0156,0.0156 0,0.0156 -0.0313,0.0468 -0.0468,0.1094 -0.125,0.1094 -0.0624,0 -0.0781,-0.0468 -0.0156,-0.0313 -0.0156,-0.0469 0,-0.0157 0.0625,-0.2657 l 0.0156,-0.0624 -0.0937,0 q -0.0157,0 -0.0157,0 l -0.0156,0 0,0 q 0,-0.0157 0.0156,-0.0313 l 0.0157,0 0.0937,0 0.0469,-0.1563 q 0,-0.0312 0.0313,-0.0312 0.0312,0 0.0312,0.0312 0,0 -0.0312,0.1563 l 0.0781,0 q 0.0312,0 0.0312,0.0156 0,0.0157 -0.0156,0.0157 l 0,0 -0.0156,0 -0.0938,0 z"
         id="path492"
         inkscape:connector-curvature="0" />
    </g>
    <g
       transform="matrix(16,0,0,16,328.9248,247)"
       style="font-size:1px;font-family:jlm_cmr10"
       id="g494">
      <path
         style="stroke:none"
         d="m 0.2812,-0.25 0,0 q 0,0.1719 -0.0624,0.3125 Q 0.1719,0.1719 0.0938,0.2344 0.0781,0.25 0.0625,0.25 q 0,0 0,-0.0156 0,0 0,-0.0156 0.1719,-0.1563 0.1719,-0.4688 0,-0.3125 -0.1563,-0.4688 l 0,0 q -0.0156,-0.0156 -0.0156,-0.0156 0,-0.0156 0,-0.0156 0.0156,0 0.0625,0.0469 0.0625,0.0625 0.0938,0.1406 0.0624,0.1406 0.0624,0.3125 z"
         id="path496"
         inkscape:connector-curvature="0" />
    </g>
    <g
       style="fill:url(#linearGradient3619);stroke:url(#linearGradient3621)"
       transform="translate(-20,-20)"
       id="g498">
      <rect
         x="530"
         y="330"
         width="90"
         style="fill:url(#linearGradient3617);stroke:none"
         rx="7"
         ry="7"
         height="40"
         id="rect500" />
      <rect
         x="530"
         y="330"
         width="90"
         style="fill:none;stroke:#010101;stroke-width:0.5"
         rx="7"
         ry="7"
         height="40"
         id="rect502" />
      <rect
         x="530"
         y="330"
         width="90"
         style="fill:url(#linearGradient17);stroke:none"
         rx="7"
         ry="7"
         height="40"
         id="rect504" />
      <rect
         x="530"
         y="330"
         width="90"
         style="fill:none;stroke:#010101;stroke-width:0.5"
         rx="7"
         ry="7"
         height="40"
         id="rect506" />
    </g>
    <g
       style="font-size:11px;font-family:sans-serif"
       transform="translate(516,316)"
       id="g508">
      <path
         d="m -0.0312,2.9844 6.7812,0 0,0.9062 -2.8438,0 0,7.1094 -1.0937,0 0,-7.1094 -2.8437,0 0,-0.9062 z m 10.1254,2.6875 q -0.7968,0 -1.2578,0.625 Q 8.3755,6.9219 8.3755,8 q 0,1.0781 0.4531,1.6953 0.4531,0.6172 1.2656,0.6172 0.7813,0 1.2422,-0.6172 0.461,-0.6172 0.461,-1.6953 0,-1.0781 -0.461,-1.7031 -0.4609,-0.625 -1.2422,-0.625 z m 0,-0.8281 q 1.2813,0 2.0157,0.8359 0.7343,0.8359 0.7343,2.3203 0,1.4688 -0.7343,2.3125 -0.7344,0.8437 -2.0157,0.8437 -1.2968,0 -2.0312,-0.8437 Q 7.3286,9.4688 7.3286,8 7.3286,6.5156 8.063,5.6797 8.7974,4.8438 10.0942,4.8438 z m 7.3204,0.1406 0.9843,0 1.2344,4.6875 1.2344,-4.6875 1.1562,0 1.2344,4.6875 1.2344,-4.6875 0.9844,0 L 23.9146,11 22.7427,11 21.4458,6.0625 20.1489,11 18.9771,11 17.4146,4.9844 z m 11.9028,0.6875 q -0.7969,0 -1.2578,0.625 -0.461,0.625 -0.461,1.7031 0,1.0781 0.4532,1.6953 0.4531,0.6172 1.2656,0.6172 0.7812,0 1.2422,-0.6172 Q 31.0205,9.0781 31.0205,8 q 0,-1.0781 -0.4609,-1.7031 -0.461,-0.625 -1.2422,-0.625 z m 0,-0.8281 q 1.2812,0 2.0156,0.8359 0.7344,0.8359 0.7344,2.3203 0,1.4688 -0.7344,2.3125 -0.7344,0.8437 -2.0156,0.8437 -1.2969,0 -2.0313,-0.8437 Q 26.5518,9.4688 26.5518,8 q 0,-1.4844 0.7343,-2.3203 0.7344,-0.8359 2.0313,-0.8359 z M 37.188,5.9062 Q 37.0317,5.8125 36.8364,5.7656 36.6411,5.7188 36.4067,5.7188 q -0.8437,0 -1.289,0.5468 -0.4453,0.5469 -0.4453,1.5625 l 0,3.1719 -1,0 0,-6.0156 1,0 0,0.9375 q 0.2968,-0.5469 0.7968,-0.8125 0.5,-0.2656 1.2188,-0.2656 0.1094,0 0.2266,0.0078 0.1171,0.0078 0.2734,0.039 l 0,1.0156 z m 1.0068,-3.2656 1,0 0,4.9375 2.9375,-2.5937 1.2656,0 -3.1875,2.8125 3.3282,3.2031 -1.2969,0 -3.0469,-2.9375 0,2.9375 -1,0 0,-8.3594 z m 10.2451,2.5156 0,0.9376 Q 48.0181,5.875 47.5649,5.7734 47.1118,5.6719 46.6274,5.6719 q -0.7343,0 -1.1015,0.2265 -0.3672,0.2266 -0.3672,0.6641 0,0.3437 0.2656,0.5391 0.2656,0.1953 1.0625,0.3828 l 0.3281,0.0781 q 1.0625,0.2187 1.5,0.6328 0.4375,0.4141 0.4375,1.1485 0,0.8281 -0.6562,1.3203 -0.6563,0.4921 -1.8281,0.4921 -0.4844,0 -1.0078,-0.0937 -0.5235,-0.0937 -1.1016,-0.2813 l 0,-1.0156 q 0.5469,0.2813 1.0781,0.4219 0.5313,0.1406 1.0625,0.1406 0.6875,0 1.0625,-0.2422 0.375,-0.2421 0.375,-0.664 0,-0.4063 -0.2656,-0.625 Q 47.2056,8.5781 46.2837,8.3906 L 45.9399,8.2969 Q 45.0181,8.1094 44.6118,7.7109 44.2056,7.3125 44.2056,6.6094 q 0,-0.8438 0.6015,-1.3047 0.6016,-0.4609 1.711,-0.4609 0.5468,0 1.0312,0.0781 Q 48.0337,5 48.4399,5.1562 z m 2.856,4.9376 0,3.1874 -1,0 0,-8.2968 1,0 0,0.9062 q 0.2969,-0.5312 0.7734,-0.789 0.4766,-0.2578 1.1485,-0.2578 1.0937,0 1.7734,0.8671 0.6797,0.8672 0.6797,2.2891 0,1.4219 -0.6797,2.2891 -0.6797,0.8671 -1.7734,0.8671 -0.6719,0 -1.1485,-0.2578 -0.4765,-0.2578 -0.7734,-0.8046 z M 54.6553,8 q 0,-1.0938 -0.4532,-1.7109 -0.4531,-0.6172 -1.2343,-0.6172 -0.7813,0 -1.2266,0.6172 Q 51.2959,6.9062 51.2959,8 q 0,1.0938 0.4453,1.7109 0.4453,0.6172 1.2266,0.6172 0.7812,0 1.2343,-0.6172 Q 54.6553,9.0938 54.6553,8 z m 5.3886,-0.0312 q -1.1875,0 -1.6484,0.2812 -0.4609,0.2812 -0.4609,0.9375 0,0.5156 0.3437,0.8281 0.3438,0.3125 0.9375,0.3125 0.8281,0 1.3203,-0.5859 0.4922,-0.586 0.4922,-1.5391 l 0,-0.2343 -0.9844,0 z m 1.9688,-0.4063 0,3.4375 -0.9844,0 0,-0.9062 q -0.3281,0.5468 -0.8359,0.8046 -0.5078,0.2578 -1.2422,0.2578 -0.9219,0 -1.4688,-0.5156 -0.5468,-0.5156 -0.5468,-1.3906 0,-1.0156 0.6797,-1.5312 0.6796,-0.5157 2.039,-0.5157 l 1.375,0 0,-0.0937 q 0,-0.6875 -0.4453,-1.0625 -0.4453,-0.375 -1.2578,-0.375 -0.5156,0 -1.0078,0.125 -0.4922,0.125 -0.9453,0.375 l 0,-0.9063 q 0.5468,-0.2187 1.0625,-0.3203 0.5156,-0.1015 0.9843,-0.1015 1.3125,0 1.9532,0.6718 0.6406,0.6719 0.6406,2.0469 z m 6.3657,-2.3437 0,0.9218 Q 67.9722,5.9062 67.5503,5.7891 67.1284,5.6719 66.6909,5.6719 q -0.9531,0 -1.4844,0.6093 Q 64.6753,6.8906 64.6753,8 q 0,1.0938 0.5312,1.7031 0.5313,0.6094 1.4844,0.6094 0.4375,0 0.8594,-0.1094 0.4219,-0.1093 0.8281,-0.3437 l 0,0.9062 q -0.4062,0.2032 -0.8515,0.2969 -0.4454,0.0937 -0.9454,0.0937 -1.3593,0 -2.1562,-0.8515 Q 63.6284,9.4531 63.6284,8 q 0,-1.4688 0.8047,-2.3125 0.8047,-0.8437 2.2109,-0.8437 0.4688,0 0.8985,0.0937 0.4297,0.0937 0.8359,0.2813 z m 6.876,2.5312 0,0.4844 -4.5469,0 q 0.0625,1.0156 0.6094,1.5468 0.5469,0.5313 1.5312,0.5313 0.5782,0 1.1094,-0.1406 0.5313,-0.1407 1.0625,-0.4063 l 0,0.9219 q -0.5312,0.2344 -1.0937,0.3516 -0.5625,0.1171 -1.125,0.1171 -1.4532,0 -2.2891,-0.8359 -0.8359,-0.8359 -0.8359,-2.2734 0,-1.4688 0.7968,-2.336 0.7969,-0.8671 2.1563,-0.8671 1.2031,0 1.9141,0.7812 0.7109,0.7812 0.7109,2.125 z m -1,-0.2969 q 0,-0.8125 -0.4453,-1.2969 -0.4453,-0.4843 -1.1797,-0.4843 -0.8281,0 -1.3203,0.4687 -0.4922,0.4688 -0.5703,1.3125 l 3.5156,0 z"
         style="stroke:none"
         id="path510"
         clip-path="url(#clipPath9)"
         inkscape:connector-curvature="0" />
      <path
         d="m 5,19.8906 0,-3.25 0.9844,0 0,8.3594 L 5,25 5,24.0938 q -0.3125,0.5468 -0.7891,0.8046 -0.4765,0.2578 -1.1484,0.2578 -1.0781,0 -1.7656,-0.8671 Q 0.6094,23.4219 0.6094,22 q 0,-1.4219 0.6875,-2.2891 0.6875,-0.8671 1.7656,-0.8671 0.6719,0 1.1484,0.2578 Q 4.6875,19.3594 5,19.8906 z M 1.625,22 q 0,1.0938 0.4531,1.7109 0.4531,0.6172 1.2344,0.6172 0.7813,0 1.2344,-0.6172 Q 5,23.0938 5,22 5,20.9062 4.5469,20.2891 4.0938,19.6719 3.3125,19.6719 q -0.7813,0 -1.2344,0.6172 Q 1.625,20.9062 1.625,22 z m 9.8071,-5.3594 2.2657,0 0,0.7656 -1.2813,0 0,8.2813 1.2813,0 0,0.7656 -2.2657,0 0,-9.8125 z m 4.6978,7.4532 1.7812,0 0,-6.125 -1.9375,0.3906 0,-0.9844 1.9219,-0.3906 1.0938,0 0,7.1094 1.7656,0 0,0.9062 -4.625,0 0,-0.9062 z m 9.1391,-6.4063 q -0.8437,0 -1.2656,0.8281 -0.4219,0.8282 -0.4219,2.4844 0,1.6406 0.4219,2.4688 0.4219,0.8281 1.2656,0.8281 0.8438,0 1.2657,-0.8281 0.4218,-0.8282 0.4218,-2.4688 0,-1.6562 -0.4218,-2.4844 -0.4219,-0.8281 -1.2657,-0.8281 z m 0,-0.8594 q 1.3438,0 2.0547,1.0703 0.711,1.0704 0.711,3.1016 0,2.0156 -0.711,3.0859 -0.7109,1.0703 -2.0547,1.0703 -1.3437,0 -2.0625,-1.0703 Q 22.4878,23.0156 22.4878,21 q 0,-2.0312 0.7187,-3.1016 0.7188,-1.0703 2.0625,-1.0703 z m 6.9986,0.8594 q -0.8438,0 -1.2656,0.8281 -0.4219,0.8282 -0.4219,2.4844 0,1.6406 0.4219,2.4688 0.4218,0.8281 1.2656,0.8281 0.8437,0 1.2656,-0.8281 0.4219,-0.8282 0.4219,-2.4688 0,-1.6562 -0.4219,-2.4844 -0.4219,-0.8281 -1.2656,-0.8281 z m 0,-0.8594 q 1.3437,0 2.0547,1.0703 0.7109,1.0704 0.7109,3.1016 0,2.0156 -0.7109,3.0859 -0.711,1.0703 -2.0547,1.0703 -1.3438,0 -2.0625,-1.0703 Q 29.4863,23.0156 29.4863,21 q 0,-2.0312 0.7188,-3.1016 0.7187,-1.0703 2.0625,-1.0703 z m 6.9985,0.8594 q -0.8437,0 -1.2656,0.8281 -0.4219,0.8282 -0.4219,2.4844 0,1.6406 0.4219,2.4688 0.4219,0.8281 1.2656,0.8281 0.8438,0 1.2656,-0.8281 0.4219,-0.8282 0.4219,-2.4688 0,-1.6562 -0.4219,-2.4844 -0.4218,-0.8281 -1.2656,-0.8281 z m 0,-0.8594 q 1.3438,0 2.0547,1.0703 0.7109,1.0704 0.7109,3.1016 0,2.0156 -0.7109,3.0859 -0.7109,1.0703 -2.0547,1.0703 -1.3437,0 -2.0625,-1.0703 Q 36.4849,23.0156 36.4849,21 q 0,-2.0312 0.7187,-3.1016 0.7188,-1.0703 2.0625,-1.0703 z m 6.9985,0.8594 q -0.8437,0 -1.2656,0.8281 -0.4219,0.8282 -0.4219,2.4844 0,1.6406 0.4219,2.4688 0.4219,0.8281 1.2656,0.8281 0.8438,0 1.2657,-0.8281 0.4218,-0.8282 0.4218,-2.4688 0,-1.6562 -0.4218,-2.4844 -0.4219,-0.8281 -1.2657,-0.8281 z m 0,-0.8594 q 1.3438,0 2.0547,1.0703 0.711,1.0704 0.711,3.1016 0,2.0156 -0.711,3.0859 -0.7109,1.0703 -2.0547,1.0703 -1.3437,0 -2.0625,-1.0703 Q 43.4834,23.0156 43.4834,21 q 0,-2.0312 0.7187,-3.1016 0.7188,-1.0703 2.0625,-1.0703 z m 6.8423,-0.1875 0,9.8125 -2.2812,0 0,-0.7656 1.2969,0 0,-8.2813 -1.2969,0 0,-0.7656 2.2812,0 z"
         style="stroke:none"
         id="path512"
         clip-path="url(#clipPath9)"
         inkscape:connector-curvature="0" />
    </g>
    <g
       transform="translate(-20,-20)"
       id="g514">
      <polygon
         style="stroke:none"
         points="522,346 530,350 522,354 "
         id="polygon516" />
      <polygon
         style="fill:none;stroke-width:0.5"
         points="522,346 530,350 522,354 "
         id="polygon518" />
    </g>
    <g
       style="fill:#ff0000;stroke:#ff0000"
       transform="matrix(0,1,-1,0,876,-264)"
       id="g520">
      <polygon
         style="stroke:none"
         points="566,322 574,326 566,330 "
         id="polygon522" />
      <polygon
         style="fill:none;stroke-width:0.5"
         points="566,322 574,326 566,330 "
         id="polygon524" />
    </g>
    <g
       style="fill:#ffffff;stroke:#ffffff"
       transform="translate(-20,-20)"
       id="g526">
      <rect
         x="507"
         width="7"
         height="7"
         y="87"
         style="stroke:none"
         id="rect528" />
      <rect
         x="507"
         y="87"
         width="7"
         style="fill:none;stroke:#010101;stroke-width:0.5"
         height="7"
         id="rect530" />
    </g>
    <g
       style="fill:#010101;stroke:#010101"
       transform="translate(-20,-20)"
       id="g532">
      <path
         style="fill:none"
         d="M 454.4998,90.3974 470,90 l 36.5,0.4506"
         id="path534"
         inkscape:connector-curvature="0" />
    </g>
    <g
       style="fill:#010101;stroke:#010101"
       transform="translate(-20,-20)"
       id="g536">
      <path
         style="fill:none"
         d="m 510.4879,94.5 -0.4804,159.003"
         id="path538"
         inkscape:connector-curvature="0" />
    </g>
    <g
       style="fill:#010101;stroke:#010101"
       transform="translate(-20,-20)"
       id="g540">
      <path
         style="fill:none"
         d="M 514.5,90.4664 570,90 l 0,233.5"
         id="path542"
         inkscape:connector-curvature="0" />
    </g>
    <g
       style="fill:#ffffff;stroke:#ffffff"
       transform="translate(-20,-20)"
       id="g544">
      <rect
         x="87"
         width="7"
         height="7"
         y="207"
         style="stroke:none"
         id="rect546" />
      <rect
         x="87"
         y="207"
         width="7"
         style="fill:none;stroke:#010101;stroke-width:0.5"
         height="7"
         id="rect548" />
    </g>
    <g
       style="fill:#010101;stroke:#010101"
       transform="translate(-20,-20)"
       id="g550">
      <path
         style="fill:none"
         d="m 68.3545,210.0822 18.1456,0.3423"
         id="path552"
         inkscape:connector-curvature="0" />
    </g>
    <g
       style="fill:#010101;stroke:#010101"
       transform="translate(-20,-20)"
       id="g554">
      <path
         style="fill:none"
         d="m 94.4999,210.4216 17.0002,-0.3334"
         id="path556"
         inkscape:connector-curvature="0" />
    </g>
    <g
       style="fill:#010101;stroke:#010101"
       transform="translate(-20,-20)"
       id="g558">
      <path
         style="fill:none"
         d="M 90.4857,214.5 90,350 l 431.5,0"
         id="path560"
         inkscape:connector-curvature="0" />
    </g>
    <g
       transform="matrix(16,0,0,16,309,317)"
       style="font-size:1px;font-family:jlm_cmmi10"
       id="g562">
      <path
         style="stroke:none"
         d="M 0.5156,-0.6875 0.375,-0.1094 q -0.0156,0.0313 -0.0156,0.0469 0,0.0469 0.0312,0.0469 0.0469,0 0.0625,-0.0782 0.0157,-0.0156 0.0157,-0.0468 0.0156,-0.0156 0.0156,-0.0156 0.0156,0 0.0156,0.0156 0,0.0156 -0.0156,0.0625 -0.0156,0.0156 -0.0156,0.0312 -0.0313,0.0625 -0.0782,0.0625 -0.0468,0 -0.0781,-0.0468 0,-0.0157 -0.0156,-0.0313 -0.0625,0.0781 -0.125,0.0781 -0.0781,0 -0.1094,-0.0781 -0.0156,-0.0313 -0.0156,-0.0937 0,-0.0938 0.0625,-0.1876 0.0781,-0.0937 0.1562,-0.0937 0.0156,0 0.0156,0 0.0626,0 0.0938,0.0625 l 0.0625,-0.2344 0,-0.0312 q 0,0 -0.0156,-0.0156 -0.0157,0 -0.0313,0 -0.0312,0 -0.0312,0 0,-0.0313 0.0156,-0.0313 0.0938,0 0.125,0 0.0156,0 0.0156,0 z m -0.2031,0.5625 0,0 0.0469,-0.1875 q 0,-0.0156 0,-0.0156 0,-0.0313 -0.0156,-0.0625 -0.0157,-0.0313 -0.0626,-0.0313 -0.0468,0 -0.0937,0.0625 -0.0156,0.0156 -0.0156,0.0313 -0.0313,0.0625 -0.0625,0.1719 0,0.0312 0,0.0468 0,0.0782 0.0468,0.0938 0,0 0.0157,0 0.0625,0 0.1093,-0.0625 0.0157,-0.0157 0.0313,-0.0313 l 0,0 q 0,-0.0156 0,-0.0156 z"
         id="path564"
         inkscape:connector-curvature="0" />
    </g>
    <g
       transform="matrix(16,0,0,16,317.328,317)"
       style="font-size:1px;font-family:jlm_cmr10"
       id="g566">
      <path
         style="stroke:none"
         d="m 0.3281,0.2344 0,0 q 0,0.0156 0,0.0156 Q 0.3125,0.25 0.2656,0.2031 0.2031,0.1406 0.1719,0.0625 0.0938,-0.0781 0.0938,-0.25 q 0,-0.1719 0.0624,-0.3125 0.0626,-0.1094 0.1407,-0.1719 0.0156,-0.0156 0.0312,-0.0156 0,0 0,0.0156 0,0 -0.0156,0.0156 -0.1563,0.1563 -0.1563,0.4688 0,0.3125 0.1563,0.4688 0.0156,0.0156 0.0156,0.0156 z"
         id="path568"
         inkscape:connector-curvature="0" />
    </g>
    <g
       transform="matrix(16,0,0,16,323.5504,317)"
       style="font-size:1px;font-family:jlm_cmmi10"
       id="g570">
      <path
         style="stroke:none"
         d="M 0.2031,-0.4062 0.125,-0.1094 q 0,0.0313 0,0.0469 0,0.0469 0.0312,0.0469 0.0626,0 0.1094,-0.0938 l 0.0156,-0.0312 q 0.0157,-0.0156 0.0157,-0.0156 0.0156,0 0.0156,0.0156 0,0.0156 -0.0313,0.0468 -0.0468,0.1094 -0.125,0.1094 -0.0624,0 -0.0781,-0.0468 -0.0156,-0.0313 -0.0156,-0.0469 0,-0.0157 0.0625,-0.2657 l 0.0156,-0.0624 -0.0937,0 q -0.0157,0 -0.0157,0 l -0.0156,0 0,0 q 0,-0.0157 0.0156,-0.0313 l 0.0157,0 0.0937,0 0.0469,-0.1563 q 0,-0.0312 0.0313,-0.0312 0.0312,0 0.0312,0.0312 0,0 -0.0312,0.1563 l 0.0781,0 q 0.0312,0 0.0312,0.0156 0,0.0157 -0.0156,0.0157 l 0,0 -0.0156,0 -0.0938,0 z"
         id="path572"
         inkscape:connector-curvature="0" />
    </g>
    <g
       transform="matrix(16,0,0,16,329.328,317)"
       style="font-size:1px;font-family:jlm_cmr10"
       id="g574">
      <path
         style="stroke:none"
         d="m 0.2812,-0.25 0,0 q 0,0.1719 -0.0624,0.3125 Q 0.1719,0.1719 0.0938,0.2344 0.0781,0.25 0.0625,0.25 q 0,0 0,-0.0156 0,0 0,-0.0156 0.1719,-0.1563 0.1719,-0.4688 0,-0.3125 -0.1563,-0.4688 l 0,0 q -0.0156,-0.0156 -0.0156,-0.0156 0,-0.0156 0,-0.0156 0.0156,0 0.0625,0.0469 0.0625,0.0625 0.0938,0.1406 0.0624,0.1406 0.0624,0.3125 z"
         id="path576"
         inkscape:connector-curvature="0" />
    </g>
  </g>
</svg>
